<?xml version="1.0" encoding="UTF-8"?>
<!DOCTYPE svg PUBLIC "-//W3C//DTD SVG 1.1//EN"
    "http://www.w3.org/Graphics/SVG/1.1/DTD/svg11.dtd"><svg xmlns="http://www.w3.org/2000/svg" height="1428.5714" stroke-opacity="1" viewBox="0 0 1000 1429" font-size="1" width="1000.0000" xmlns:xlink="http://www.w3.org/1999/xlink" stroke="rgb(0,0,0)" version="1.1"><defs></defs><g stroke-linejoin="miter" stroke-opacity="1.0" fill-opacity="0.0" stroke="rgb(0,0,0)" stroke-width="4.780914437337574" fill="rgb(0,0,0)" stroke-linecap="butt" stroke-miterlimit="10.0"><path d="M 694.8052,194.8052 l -129.8701,259.7403 "/></g><g stroke-linejoin="miter" stroke-opacity="1.0" fill-opacity="0.0" stroke="rgb(0,0,0)" stroke-width="4.780914437337574" fill="rgb(0,0,0)" stroke-linecap="butt" stroke-miterlimit="10.0"><path d="M 564.9351,454.5455 l 129.8701,259.7403 "/></g><g stroke-linejoin="miter" stroke-opacity="1.0" fill-opacity="0.0" stroke="rgb(0,0,0)" stroke-width="4.780914437337574" fill="rgb(0,0,0)" stroke-linecap="butt" stroke-miterlimit="10.0"><path d="M 564.9351,454.5455 l -129.8701,259.7403 "/></g><g stroke-linejoin="miter" stroke-opacity="1.0" fill-opacity="0.0" stroke="rgb(0,0,0)" stroke-width="4.780914437337574" fill="rgb(0,0,0)" stroke-linecap="butt" stroke-miterlimit="10.0"><path d="M 694.8052,714.2857 l 129.8701,259.7403 "/></g><g stroke-linejoin="miter" stroke-opacity="1.0" fill-opacity="0.0" stroke="rgb(0,0,0)" stroke-width="4.780914437337574" fill="rgb(0,0,0)" stroke-linecap="butt" stroke-miterlimit="10.0"><path d="M 694.8052,714.2857 l -129.8701,259.7403 "/></g><g stroke-linejoin="miter" stroke-opacity="1.0" fill-opacity="1.0" stroke="rgb(0,0,0)" stroke-width="4.780914437337574" fill="rgb(255,255,255)" stroke-linecap="butt" stroke-miterlimit="10.0"><path d="M 954.5455,974.0260 c 0.0000,-71.7253 -58.1448,-129.8701 -129.8701 -129.8701c -71.7253,-0.0000 -129.8701,58.1448 -129.8701 129.8701c -0.0000,71.7253 58.1448,129.8701 129.8701 129.8701c 71.7253,0.0000 129.8701,-58.1448 129.8701 -129.8701Z"/></g><g stroke-linejoin="miter" stroke-opacity="1.0" fill-opacity="1.0" font-size="2.5974025974025974px" stroke="rgb(0,0,0)" stroke-width="4.780914437337574" fill="rgb(0,0,0)" stroke-linecap="butt" stroke-miterlimit="10.0"><text dominant-baseline="middle" transform="matrix(1.0000,0.0000,0.0000,1.0000,824.6753,974.0260)" stroke="none" text-anchor="middle">([],([Var &quot;T0&quot;,Var &quot;T1&quot;],[(Fun &quot;add&quot; [Var &quot;T0&quot;,Var &quot;T1&quot;],Fun &quot;add&quot; [Fun &quot;Left 0&quot; [],Var &quot;X&quot;]),(Fun &quot;add&quot; [Var &quot;T0&quot;,Var &quot;T1&quot;],Fun &quot;add&quot; [Fun &quot;s&quot; [Var &quot;Z&quot;],Var &quot;X&quot;])]))</text></g><g stroke-linejoin="miter" stroke-opacity="1.0" fill-opacity="0.0" stroke="rgb(0,0,0)" stroke-width="4.780914437337574" fill="rgb(0,0,0)" stroke-linecap="butt" stroke-miterlimit="10.0"><path d="M 564.9351,974.0260 l -129.8701,259.7403 "/></g><g stroke-linejoin="miter" stroke-opacity="1.0" fill-opacity="1.0" stroke="rgb(0,0,0)" stroke-width="4.780914437337574" fill="rgb(255,255,255)" stroke-linecap="butt" stroke-miterlimit="10.0"><path d="M 564.9351,1233.7662 c 0.0000,-71.7253 -58.1448,-129.8701 -129.8701 -129.8701c -71.7253,-0.0000 -129.8701,58.1448 -129.8701 129.8701c -0.0000,71.7253 58.1448,129.8701 129.8701 129.8701c 71.7253,0.0000 129.8701,-58.1448 129.8701 -129.8701Z"/></g><g stroke-linejoin="miter" stroke-opacity="1.0" fill-opacity="1.0" font-size="2.5974025974025974px" stroke="rgb(0,0,0)" stroke-width="4.780914437337574" fill="rgb(0,0,0)" stroke-linecap="butt" stroke-miterlimit="10.0"><text dominant-baseline="middle" transform="matrix(1.0000,0.0000,0.0000,1.0000,435.0649,1233.7662)" stroke="none" text-anchor="middle">([],([Var &quot;T3&quot;,Var &quot;T4&quot;],[(Fun &quot;add&quot; [Fun &quot;s&quot; [Var &quot;T3&quot;],Var &quot;T4&quot;],Fun &quot;add&quot; [Fun &quot;Left 0&quot; [],Var &quot;X&quot;])]))</text></g><g stroke-linejoin="miter" stroke-opacity="1.0" fill-opacity="1.0" stroke="rgb(0,0,0)" stroke-width="4.780914437337574" fill="rgb(255,255,255)" stroke-linecap="butt" stroke-miterlimit="10.0"><path d="M 694.8052,974.0260 c 0.0000,-71.7253 -58.1448,-129.8701 -129.8701 -129.8701c -71.7253,-0.0000 -129.8701,58.1448 -129.8701 129.8701c -0.0000,71.7253 58.1448,129.8701 129.8701 129.8701c 71.7253,0.0000 129.8701,-58.1448 129.8701 -129.8701Z"/></g><g stroke-linejoin="miter" stroke-opacity="1.0" fill-opacity="1.0" font-size="2.5974025974025974px" stroke="rgb(0,0,0)" stroke-width="4.780914437337574" fill="rgb(0,0,0)" stroke-linecap="butt" stroke-miterlimit="10.0"><text dominant-baseline="middle" transform="matrix(1.0000,0.0000,0.0000,1.0000,564.9351,974.0260)" stroke="none" text-anchor="middle">([([Fun &quot;s&quot; [Fun &quot;add&quot; [Var &quot;T3&quot;,Var &quot;T4&quot;]]],GS {unGS = fromList [(&quot;T0&quot;,Fun &quot;s&quot; [Var &quot;T3&quot;]),(&quot;T1&quot;,Var &quot;T4&quot;),(&quot;T3&quot;,Var &quot;T3&quot;),(&quot;T4&quot;,Var &quot;T4&quot;),(&quot;X&quot;,Var &quot;T4&quot;),(&quot;Z&quot;,Var &quot;T3&quot;)]},Nothing)],([Var &quot;T3&quot;,Var &quot;T4&quot;],[(Fun &quot;add&quot; [Fun &quot;s&quot; [Var &quot;T3&quot;],Var &quot;T4&quot;],Fun &quot;add&quot; [Fun &quot;Left 0&quot; [],Var &quot;X&quot;])]))</text></g><g stroke-linejoin="miter" stroke-opacity="1.0" fill-opacity="1.0" stroke="rgb(0,0,0)" stroke-width="4.780914437337574" fill="rgb(255,255,255)" stroke-linecap="butt" stroke-miterlimit="10.0"><path d="M 824.6753,714.2857 c 0.0000,-71.7253 -58.1448,-129.8701 -129.8701 -129.8701c -71.7253,-0.0000 -129.8701,58.1448 -129.8701 129.8701c -0.0000,71.7253 58.1448,129.8701 129.8701 129.8701c 71.7253,0.0000 129.8701,-58.1448 129.8701 -129.8701Z"/></g><g stroke-linejoin="miter" stroke-opacity="1.0" fill-opacity="1.0" font-size="2.5974025974025974px" stroke="rgb(0,0,0)" stroke-width="4.780914437337574" fill="rgb(0,0,0)" stroke-linecap="butt" stroke-miterlimit="10.0"><text dominant-baseline="middle" transform="matrix(1.0000,0.0000,0.0000,1.0000,694.8052,714.2857)" stroke="none" text-anchor="middle">([([Fun &quot;add&quot; [Var &quot;T0&quot;,Var &quot;T1&quot;]],GS {unGS = fromList []},Just (Fun &quot;add&quot; [Fun &quot;s&quot; [Var &quot;Z&quot;],Var &quot;X&quot;],[Fun &quot;s&quot; [Fun &quot;add&quot; [Var &quot;Z&quot;,Var &quot;X&quot;]]]))],([Var &quot;T0&quot;,Var &quot;T1&quot;],[(Fun &quot;add&quot; [Var &quot;T0&quot;,Var &quot;T1&quot;],Fun &quot;add&quot; [Fun &quot;Left 0&quot; [],Var &quot;X&quot;])]))</text></g><g stroke-linejoin="miter" stroke-opacity="1.0" fill-opacity="0.0" stroke="rgb(0,0,0)" stroke-width="4.780914437337574" fill="rgb(0,0,0)" stroke-linecap="butt" stroke-miterlimit="10.0"><path d="M 435.0649,714.2857 l -129.8701,259.7403 "/></g><g stroke-linejoin="miter" stroke-opacity="1.0" fill-opacity="0.0" stroke="rgb(0,0,0)" stroke-width="4.780914437337574" fill="rgb(0,0,0)" stroke-linecap="butt" stroke-miterlimit="10.0"><path d="M 305.1948,974.0260 l -129.8701,259.7403 "/></g><g stroke-linejoin="miter" stroke-opacity="1.0" fill-opacity="1.0" stroke="rgb(0,0,0)" stroke-width="4.780914437337574" fill="rgb(255,255,255)" stroke-linecap="butt" stroke-miterlimit="10.0"><path d="M 305.1948,1233.7662 c 0.0000,-71.7253 -58.1448,-129.8701 -129.8701 -129.8701c -71.7253,-0.0000 -129.8701,58.1448 -129.8701 129.8701c -0.0000,71.7253 58.1448,129.8701 129.8701 129.8701c 71.7253,0.0000 129.8701,-58.1448 129.8701 -129.8701Z"/></g><g stroke-linejoin="miter" stroke-opacity="1.0" fill-opacity="1.0" font-size="2.5974025974025974px" stroke="rgb(0,0,0)" stroke-width="4.780914437337574" fill="rgb(0,0,0)" stroke-linecap="butt" stroke-miterlimit="10.0"><text dominant-baseline="middle" transform="matrix(1.0000,0.0000,0.0000,1.0000,175.3247,1233.7662)" stroke="none" text-anchor="middle">([],([Var &quot;T2&quot;],[]))</text></g><g stroke-linejoin="miter" stroke-opacity="1.0" fill-opacity="1.0" stroke="rgb(0,0,0)" stroke-width="4.780914437337574" fill="rgb(255,255,255)" stroke-linecap="butt" stroke-miterlimit="10.0"><path d="M 435.0649,974.0260 c 0.0000,-71.7253 -58.1448,-129.8701 -129.8701 -129.8701c -71.7253,-0.0000 -129.8701,58.1448 -129.8701 129.8701c -0.0000,71.7253 58.1448,129.8701 129.8701 129.8701c 71.7253,0.0000 129.8701,-58.1448 129.8701 -129.8701Z"/></g><g stroke-linejoin="miter" stroke-opacity="1.0" fill-opacity="1.0" font-size="2.5974025974025974px" stroke="rgb(0,0,0)" stroke-width="4.780914437337574" fill="rgb(0,0,0)" stroke-linecap="butt" stroke-miterlimit="10.0"><text dominant-baseline="middle" transform="matrix(1.0000,0.0000,0.0000,1.0000,305.1948,974.0260)" stroke="none" text-anchor="middle">([([Fun &quot;add&quot; [Fun &quot;Left 0&quot; [],Var &quot;T2&quot;]],GS {unGS = fromList [(&quot;T0&quot;,Fun &quot;Left 0&quot; []),(&quot;T1&quot;,Var &quot;T2&quot;)]},Just (Fun &quot;add&quot; [Fun &quot;s&quot; [Var &quot;Z&quot;],Var &quot;X&quot;],[Fun &quot;s&quot; [Fun &quot;add&quot; [Var &quot;Z&quot;,Var &quot;X&quot;]]]))],([Var &quot;T2&quot;],[]))</text></g><g stroke-linejoin="miter" stroke-opacity="1.0" fill-opacity="1.0" stroke="rgb(0,0,0)" stroke-width="4.780914437337574" fill="rgb(255,255,255)" stroke-linecap="butt" stroke-miterlimit="10.0"><path d="M 564.9351,714.2857 c 0.0000,-71.7253 -58.1448,-129.8701 -129.8701 -129.8701c -71.7253,-0.0000 -129.8701,58.1448 -129.8701 129.8701c -0.0000,71.7253 58.1448,129.8701 129.8701 129.8701c 71.7253,0.0000 129.8701,-58.1448 129.8701 -129.8701Z"/></g><g stroke-linejoin="miter" stroke-opacity="1.0" fill-opacity="1.0" font-size="2.5974025974025974px" stroke="rgb(0,0,0)" stroke-width="4.780914437337574" fill="rgb(0,0,0)" stroke-linecap="butt" stroke-miterlimit="10.0"><text dominant-baseline="middle" transform="matrix(1.0000,0.0000,0.0000,1.0000,435.0649,714.2857)" stroke="none" text-anchor="middle">([([Var &quot;T2&quot;],GS {unGS = fromList [(&quot;T0&quot;,Fun &quot;Left 0&quot; []),(&quot;T1&quot;,Var &quot;T2&quot;),(&quot;T2&quot;,Var &quot;T2&quot;),(&quot;X&quot;,Var &quot;T2&quot;)]},Nothing),([Fun &quot;add&quot; [Fun &quot;Left 0&quot; [],Var &quot;T2&quot;]],GS {unGS = fromList [(&quot;T0&quot;,Fun &quot;Left 0&quot; []),(&quot;T1&quot;,Var &quot;T2&quot;)]},Just (Fun &quot;add&quot; [Fun &quot;s&quot; [Var &quot;Z&quot;],Var &quot;X&quot;],[Fun &quot;s&quot; [Fun &quot;add&quot; [Var &quot;Z&quot;,Var &quot;X&quot;]]]))],([Var &quot;T2&quot;],[]))</text></g><g stroke-linejoin="miter" stroke-opacity="1.0" fill-opacity="1.0" stroke="rgb(0,0,0)" stroke-width="4.780914437337574" fill="rgb(255,255,255)" stroke-linecap="butt" stroke-miterlimit="10.0"><path d="M 694.8052,454.5455 c 0.0000,-71.7253 -58.1448,-129.8701 -129.8701 -129.8701c -71.7253,-0.0000 -129.8701,58.1448 -129.8701 129.8701c -0.0000,71.7253 58.1448,129.8701 129.8701 129.8701c 71.7253,0.0000 129.8701,-58.1448 129.8701 -129.8701Z"/></g><g stroke-linejoin="miter" stroke-opacity="1.0" fill-opacity="1.0" font-size="2.5974025974025974px" stroke="rgb(0,0,0)" stroke-width="4.780914437337574" fill="rgb(0,0,0)" stroke-linecap="butt" stroke-miterlimit="10.0"><text dominant-baseline="middle" transform="matrix(1.0000,0.0000,0.0000,1.0000,564.9351,454.5455)" stroke="none" text-anchor="middle">([([Fun &quot;add&quot; [Var &quot;T0&quot;,Var &quot;T1&quot;]],GS {unGS = fromList []},Just (Fun &quot;add&quot; [Fun &quot;Left 0&quot; [],Var &quot;X&quot;],[Var &quot;X&quot;])),([Fun &quot;add&quot; [Var &quot;T0&quot;,Var &quot;T1&quot;]],GS {unGS = fromList []},Just (Fun &quot;add&quot; [Fun &quot;s&quot; [Var &quot;Z&quot;],Var &quot;X&quot;],[Fun &quot;s&quot; [Fun &quot;add&quot; [Var &quot;Z&quot;,Var &quot;X&quot;]]]))],([Var &quot;T0&quot;,Var &quot;T1&quot;],[]))</text></g><g stroke-linejoin="miter" stroke-opacity="1.0" fill-opacity="1.0" stroke="rgb(0,0,0)" stroke-width="4.780914437337574" fill="rgb(255,255,255)" stroke-linecap="butt" stroke-miterlimit="10.0"><path d="M 824.6753,194.8052 c 0.0000,-71.7253 -58.1448,-129.8701 -129.8701 -129.8701c -71.7253,-0.0000 -129.8701,58.1448 -129.8701 129.8701c -0.0000,71.7253 58.1448,129.8701 129.8701 129.8701c 71.7253,0.0000 129.8701,-58.1448 129.8701 -129.8701Z"/></g><g stroke-linejoin="miter" stroke-opacity="1.0" fill-opacity="1.0" font-size="2.5974025974025974px" stroke="rgb(0,0,0)" stroke-width="4.780914437337574" fill="rgb(0,0,0)" stroke-linecap="butt" stroke-miterlimit="10.0"><text dominant-baseline="middle" transform="matrix(1.0000,0.0000,0.0000,1.0000,694.8052,194.8052)" stroke="none" text-anchor="middle">([([Fun &quot;add&quot; [Var &quot;T0&quot;,Var &quot;T1&quot;]],GS {unGS = fromList []},Nothing)],([Var &quot;T0&quot;,Var &quot;T1&quot;],[]))</text></g></svg>