<?xml version="1.0" encoding="UTF-8"?>
<!DOCTYPE svg PUBLIC "-//W3C//DTD SVG 1.1//EN"
    "http://www.w3.org/Graphics/SVG/1.1/DTD/svg11.dtd"><svg xmlns="http://www.w3.org/2000/svg" height="372.2360" stroke-opacity="1" viewBox="0 0 436 372" font-size="1" width="435.8386" xmlns:xlink="http://www.w3.org/1999/xlink" stroke="rgb(0,0,0)" version="1.1"><defs></defs><g stroke-linejoin="miter" stroke-opacity="1.0" fill-opacity="0.0" stroke="rgb(0,0,0)" stroke-width="2.0" fill="rgb(0,0,0)" stroke-linecap="butt" stroke-miterlimit="10.0"><path d="M 248.4150,63.9996 l -5.0000,62.8498 "/></g><g stroke-linejoin="miter" stroke-opacity="1.0" fill-opacity="0.0" stroke="rgb(0,0,0)" stroke-width="2.0" fill="rgb(0,0,0)" stroke-linecap="butt" stroke-miterlimit="10.0"><path d="M 243.4150,126.8494 l 108.7143,64.0537 "/></g><g stroke-linejoin="miter" stroke-opacity="1.0" fill-opacity="0.0" stroke="rgb(0,0,0)" stroke-width="2.0" fill="rgb(0,0,0)" stroke-linecap="butt" stroke-miterlimit="10.0"><path d="M 243.4150,126.8494 l -108.7143,64.0537 "/></g><g stroke-linejoin="miter" stroke-opacity="1.0" fill-opacity="0.0" stroke="rgb(0,0,0)" stroke-width="2.0" fill="rgb(0,0,0)" stroke-linecap="butt" stroke-miterlimit="10.0"><path d="M 352.1293,190.9031 l 57.3846,61.9817 "/></g><g stroke-linejoin="miter" stroke-opacity="1.0" fill-opacity="0.0" stroke="rgb(0,0,0)" stroke-width="2.0" fill="rgb(0,0,0)" stroke-linecap="butt" stroke-miterlimit="10.0"><path d="M 352.1293,190.9031 l -57.3846,61.9817 "/></g><g stroke-linejoin="miter" stroke-opacity="1.0" fill-opacity="1.0" stroke="rgb(0,0,0)" stroke-width="2.0" fill="rgb(255,255,255)" stroke-linecap="butt" stroke-miterlimit="10.0"><path d="M 416.0277,259.7908 l -0.0000,-13.8121 h -13.0277 l -0.0000,13.8121 Z"/></g><g stroke-linejoin="miter" stroke-opacity="1.0" fill-opacity="1.0" stroke="rgb(0,0,0)" stroke-width="2.0e-4" fill="rgb(0,0,0)" stroke-linecap="butt" stroke-miterlimit="10.0"><path d="M 406.9237,255.2296 ZM 411.5881,252.6876 v 0.3775 h -3.3431 v 0.0252 c 0.0000,0.7676 0.4006,1.1871 0.4006 1.1871c 0.4006,0.4195 1.1305,0.4195 1.1305 0.4195c 0.3691,-0.0000 0.7718,-0.1174 0.7718 -0.1174c 0.4027,-0.1174 0.8599,-0.3565 0.8599 -0.3565v 0.7676 c -0.4404,0.1804 -0.8494,0.2706 -0.8494 0.2706c -0.4090,0.0902 -0.7907,0.0902 -0.7907 0.0902c -1.0948,-0.0000 -1.7114,-0.6565 -1.7114 -0.6565c -0.6166,-0.6565 -0.6166,-1.8100 -0.6166 -1.8100c 0.0000,-1.1242 0.6040,-1.7953 0.6040 -1.7953c 0.6040,-0.6711 1.6107,-0.6711 1.6107 -0.6711c 0.8977,-0.0000 1.4157,0.6082 1.4157 0.6082c 0.5180,0.6082 0.5180,1.6611 0.5180 1.6611ZM 411.5881,252.6876 ZM 410.8163,252.4611 c -0.0168,-0.6795 -0.3209,-1.0340 -0.3209 -1.0340c -0.3041,-0.3544 -0.8746,-0.3544 -0.8746 -0.3544c -0.5579,-0.0000 -0.9186,0.3691 -0.9186 0.3691c -0.3607,0.3691 -0.4279,1.0235 -0.4279 1.0235Z"/></g><g stroke-linejoin="miter" stroke-opacity="1.0" fill-opacity="0.0" stroke="rgb(0,0,0)" stroke-width="2.0" fill="rgb(0,0,0)" stroke-linecap="butt" stroke-miterlimit="10.0"><path d="M 294.7447,252.8848 l -5.0000,58.0648 "/></g><g stroke-linejoin="miter" stroke-opacity="1.0" fill-opacity="1.0" stroke="rgb(0,0,0)" stroke-width="2.0" fill="rgb(255,255,255)" stroke-linecap="butt" stroke-miterlimit="10.0"><path d="M 296.2585,317.8556 l -0.0000,-13.8121 h -13.0277 l -0.0000,13.8121 Z"/></g><g stroke-linejoin="miter" stroke-opacity="1.0" fill-opacity="1.0" stroke="rgb(0,0,0)" stroke-width="2.0e-4" fill="rgb(0,0,0)" stroke-linecap="butt" stroke-miterlimit="10.0"><path d="M 287.1545,313.2943 ZM 291.8189,310.7524 v 0.3775 h -3.3431 v 0.0252 c 0.0000,0.7676 0.4006,1.1871 0.4006 1.1871c 0.4006,0.4195 1.1305,0.4195 1.1305 0.4195c 0.3691,-0.0000 0.7718,-0.1174 0.7718 -0.1174c 0.4027,-0.1174 0.8599,-0.3565 0.8599 -0.3565v 0.7676 c -0.4404,0.1804 -0.8494,0.2706 -0.8494 0.2706c -0.4090,0.0902 -0.7907,0.0902 -0.7907 0.0902c -1.0948,-0.0000 -1.7114,-0.6565 -1.7114 -0.6565c -0.6166,-0.6565 -0.6166,-1.8100 -0.6166 -1.8100c 0.0000,-1.1242 0.6040,-1.7953 0.6040 -1.7953c 0.6040,-0.6711 1.6107,-0.6711 1.6107 -0.6711c 0.8977,-0.0000 1.4157,0.6082 1.4157 0.6082c 0.5180,0.6082 0.5180,1.6611 0.5180 1.6611ZM 291.8189,310.7524 ZM 291.0471,310.5259 c -0.0168,-0.6795 -0.3209,-1.0340 -0.3209 -1.0340c -0.3041,-0.3544 -0.8746,-0.3544 -0.8746 -0.3544c -0.5579,-0.0000 -0.9186,0.3691 -0.9186 0.3691c -0.3607,0.3691 -0.4279,1.0235 -0.4279 1.0235Z"/></g><g stroke-linejoin="miter" stroke-opacity="1.0" fill-opacity="1.0" stroke="rgb(0,0,0)" stroke-width="2.0" fill="rgb(255,255,255)" stroke-linecap="butt" stroke-miterlimit="10.0"><path d="M 393.0001,264.0435 l -0.0000,-22.3174 h -196.5107 l -0.0000,22.3174 Z"/></g><g stroke-linejoin="miter" stroke-opacity="1.0" fill-opacity="1.0" stroke="rgb(0,0,0)" stroke-width="1.1e-4" fill="rgb(0,0,0)" stroke-linecap="butt" stroke-miterlimit="10.0"><path d="M 269.7083,256.0995 ZM 272.0430,256.5378 v 0.3322 h -0.1477 c -0.5745,-0.0000 -0.7694,-0.1707 -0.7694 -0.1707c -0.1949,-0.1707 -0.1949,-0.6806 -0.1949 -0.6806v -0.5514 c 0.0000,-0.3484 -0.1234,-0.4822 -0.1234 -0.4822c -0.1234,-0.1338 -0.4464,-0.1338 -0.4464 -0.1338h -0.1430 v -0.3299 h 0.1430 c 0.3253,-0.0000 0.4476,-0.1315 0.4476 -0.1315c 0.1223,-0.1315 0.1223,-0.4776 0.1223 -0.4776v -0.5537 c 0.0000,-0.5099 0.1949,-0.6794 0.1949 -0.6794c 0.1949,-0.1696 0.7694,-0.1696 0.7694 -0.1696h 0.1477 v 0.3299 h -0.1615 c -0.3230,-0.0000 -0.4210,0.1004 -0.4210 0.1004c -0.0980,0.1004 -0.0980,0.4280 -0.0980 0.4280v 0.5721 c 0.0000,0.3622 -0.1050,0.5260 -0.1050 0.5260c -0.1050,0.1638 -0.3587,0.2215 -0.3587 0.2215c 0.2561,0.0623 0.3599,0.2261 0.3599 0.2261c 0.1038,0.1638 0.1038,0.5237 0.1038 0.5237v 0.5721 c 0.0000,0.3299 0.0980,0.4291 0.0980 0.4291c 0.0980,0.0992 0.4210,0.0992 0.4210 0.0992h 0.1615 ZM 272.5529,256.0995 ZM 272.6613,252.6551 h 2.6277 v 0.3922 h -1.0774 v 3.0522 h -0.4683 v -3.0522 h -1.0820 v -0.3922 ZM 275.3975,256.0995 ZM 276.5118,254.3692 c 0.0000,-0.1269 0.0888,-0.2192 0.0888 -0.2192c 0.0888,-0.0923 0.2134,-0.0923 0.2134 -0.0923c 0.1292,-0.0000 0.2215,0.0923 0.2215 0.0923c 0.0923,0.0923 0.0923,0.2192 0.0923 0.2192c 0.0000,0.1292 -0.0911,0.2192 -0.0911 0.2192c -0.0911,0.0900 -0.2226,0.0900 -0.2226 0.0900c -0.1292,-0.0000 -0.2157,-0.0877 -0.2157 -0.0877c -0.0865,-0.0877 -0.0865,-0.2215 -0.0865 -0.2215ZM 276.5118,254.3692 ZM 276.8186,252.9619 c -0.3253,-0.0000 -0.4856,0.3507 -0.4856 0.3507c -0.1603,0.3507 -0.1603,1.0682 -0.1603 1.0682c 0.0000,0.7152 0.1603,1.0659 0.1603 1.0659c 0.1603,0.3507 0.4856,0.3507 0.4856 0.3507c 0.3276,-0.0000 0.4879,-0.3507 0.4879 -0.3507c 0.1603,-0.3507 0.1603,-1.0659 0.1603 -1.0659c 0.0000,-0.7175 -0.1603,-1.0682 -0.1603 -1.0682c -0.1603,-0.3507 -0.4879,-0.3507 -0.4879 -0.3507ZM 276.8186,252.9619 ZM 276.8186,252.5928 c 0.5514,-0.0000 0.8340,0.4522 0.8340 0.4522c 0.2826,0.4522 0.2826,1.3358 0.2826 1.3358c 0.0000,0.8813 -0.2826,1.3335 -0.2826 1.3335c -0.2826,0.4522 -0.8340,0.4522 -0.8340 0.4522c -0.5514,-0.0000 -0.8328,-0.4522 -0.8328 -0.4522c -0.2815,-0.4522 -0.2815,-1.3335 -0.2815 -1.3335c 0.0000,-0.8836 0.2815,-1.3358 0.2815 -1.3358c 0.2815,-0.4522 0.8328,-0.4522 0.8328 -0.4522ZM 281.0867,256.0995 ZM 281.9080,254.6161 h 1.2020 v 0.3784 h -1.2020 v -0.3784 ZM 283.9313,256.0995 ZM 284.1343,253.8824 v -0.4199 l 2.4385,0.9643 v 0.3830 l -2.4385,0.9643 v -0.4222 l 1.9610,-0.7313 ZM 289.6204,256.0995 ZM 291.8652,253.6056 v 0.4153 c -0.1823,-0.1061 -0.3668,-0.1592 -0.3668 -0.1592c -0.1846,-0.0531 -0.3760,-0.0531 -0.3760 -0.0531c -0.2884,-0.0000 -0.4303,0.0934 -0.4303 0.0934c -0.1419,0.0934 -0.1419,0.2849 -0.1419 0.2849c 0.0000,0.1730 0.1061,0.2584 0.1061 0.2584c 0.1061,0.0854 0.5283,0.1661 0.5283 0.1661l 0.1707,0.0323 c 0.3161,0.0600 0.4787,0.2399 0.4787 0.2399c 0.1626,0.1799 0.1626,0.4683 0.1626 0.4683c 0.0000,0.3830 -0.2722,0.5987 -0.2722 0.5987c -0.2722,0.2157 -0.7567,0.2157 -0.7567 0.2157c -0.1915,-0.0000 -0.4014,-0.0404 -0.4014 -0.0404c -0.2099,-0.0404 -0.4545,-0.1211 -0.4545 -0.1211v -0.4383 c 0.2376,0.1223 0.4545,0.1834 0.4545 0.1834c 0.2169,0.0611 0.4107,0.0611 0.4107 0.0611c 0.2815,-0.0000 0.4360,-0.1142 0.4360 -0.1142c 0.1546,-0.1142 0.1546,-0.3195 0.1546 -0.3195c 0.0000,-0.2953 -0.5652,-0.4083 -0.5652 -0.4083l -0.0185,-0.0046 l -0.1592,-0.0323 c -0.3668,-0.0715 -0.5352,-0.2411 -0.5352 -0.2411c -0.1684,-0.1696 -0.1684,-0.4626 -0.1684 -0.4626c 0.0000,-0.3714 0.2515,-0.5733 0.2515 -0.5733c 0.2515,-0.2019 0.7175,-0.2019 0.7175 -0.2019c 0.2076,-0.0000 0.3991,0.0381 0.3991 0.0381c 0.1915,0.0381 0.3760,0.1142 0.3760 0.1142ZM 292.4650,256.0995 ZM 294.5068,252.5143 c -0.3068,0.5260 -0.4579,1.0486 -0.4579 1.0486c -0.1511,0.5225 -0.1511,1.0532 -0.1511 1.0532c 0.0000,0.5283 0.1511,1.0520 0.1511 1.0520c 0.1511,0.5237 0.4579,1.0543 0.4579 1.0543h -0.3691 c -0.3484,-0.5491 -0.5191,-1.0693 -0.5191 -1.0693c -0.1707,-0.5202 -0.1707,-1.0370 -0.1707 -1.0370c 0.0000,-0.5145 0.1707,-1.0359 0.1707 -1.0359c 0.1707,-0.5214 0.5191,-1.0659 0.5191 -1.0659h 0.3691 ZM 295.3096,256.0995 ZM 295.4180,252.6551 h 2.6277 v 0.3922 h -1.0774 v 3.0522 h -0.4683 v -3.0522 h -1.0820 v -0.3922 ZM 298.1542,256.0995 ZM 299.0147,255.7073 h 1.5826 v 0.3922 h -2.0925 v -0.3922 l 0.7544,-0.8029 c 0.0000,-0.0000 0.4453,-0.4914 0.4453 -0.4914c 0.2307,-0.2815 0.3115,-0.4556 0.3115 -0.4556c 0.0807,-0.1742 0.0807,-0.3564 0.0807 -0.3564c 0.0000,-0.2884 -0.1696,-0.4522 -0.1696 -0.4522c -0.1696,-0.1638 -0.4649,-0.1638 -0.4649 -0.1638c -0.2099,-0.0000 -0.4406,0.0761 -0.4406 0.0761c -0.2307,0.0761 -0.4891,0.2307 -0.4891 0.2307v -0.4706 c 0.2376,-0.1130 0.4672,-0.1707 0.4672 -0.1707c 0.2296,-0.0577 0.4533,-0.0577 0.4533 -0.0577c 0.5052,-0.0000 0.8132,0.2688 0.8132 0.2688c 0.3080,0.2688 0.3080,0.7048 0.3080 0.7048c 0.0000,0.2215 -0.1027,0.4430 -0.1027 0.4430c -0.1027,0.2215 -0.3334,0.4891 -0.3334 0.4891l -0.3749,0.4153 ZM 300.9988,256.0995 ZM 301.8016,252.5143 h 0.3691 c 0.3484,0.5445 0.5191,1.0659 0.5191 1.0659c 0.1707,0.5214 0.1707,1.0359 0.1707 1.0359c 0.0000,0.5191 -0.1707,1.0405 -0.1707 1.0405c -0.1707,0.5214 -0.5191,1.0659 -0.5191 1.0659h -0.3691 c 0.3068,-0.5352 0.4579,-1.0589 0.4579 -1.0589c 0.1511,-0.5237 0.1511,-1.0474 0.1511 -1.0474c 0.0000,-0.5260 -0.1511,-1.0497 -0.1511 -1.0497c -0.1511,-0.5237 -0.4579,-1.0520 -0.4579 -1.0520ZM 303.8434,256.0995 ZM 305.0015,255.4005 h 0.5814 v 0.4776 l -0.4545,0.8836 h -0.3553 l 0.2284,-0.8836 v -0.4776 ZM 309.5326,256.0995 ZM 309.6410,252.6551 h 2.6277 v 0.3922 h -1.0774 v 3.0522 h -0.4683 v -3.0522 h -1.0820 v -0.3922 ZM 312.3771,256.0995 ZM 313.0000,255.7073 h 0.7244 v -2.6323 l -0.7798,0.1753 v -0.4245 l 0.7752,-0.1707 h 0.4660 v 3.0522 h 0.7152 v 0.3922 h -1.9010 v -0.3922 ZM 318.0663,256.0995 ZM 318.8876,254.6161 h 1.2020 v 0.3784 h -1.2020 v -0.3784 ZM 320.9109,256.0995 ZM 321.1139,253.8824 v -0.4199 l 2.4385,0.9643 v 0.3830 l -2.4385,0.9643 v -0.4222 l 1.9610,-0.7313 ZM 326.6001,256.0995 ZM 326.7085,252.6551 h 2.6277 v 0.3922 h -1.0774 v 3.0522 h -0.4683 v -3.0522 h -1.0820 v -0.3922 ZM 329.4447,256.0995 ZM 331.2349,254.2562 c 0.3391,0.0900 0.5191,0.3195 0.5191 0.3195c 0.1799,0.2296 0.1799,0.5733 0.1799 0.5733c 0.0000,0.4753 -0.3195,0.7463 -0.3195 0.7463c -0.3195,0.2711 -0.8848,0.2711 -0.8848 0.2711c -0.2376,-0.0000 -0.4845,-0.0438 -0.4845 -0.0438c -0.2469,-0.0438 -0.4845,-0.1269 -0.4845 -0.1269v -0.4637 c 0.2353,0.1223 0.4637,0.1823 0.4637 0.1823c 0.2284,0.0600 0.4545,0.0600 0.4545 0.0600c 0.3830,-0.0000 0.5883,-0.1730 0.5883 -0.1730c 0.2053,-0.1730 0.2053,-0.4983 0.2053 -0.4983c 0.0000,-0.2999 -0.2053,-0.4764 -0.2053 -0.4764c -0.2053,-0.1765 -0.5560,-0.1765 -0.5560 -0.1765h -0.3553 v -0.3830 h 0.3553 c 0.3207,-0.0000 0.5006,-0.1407 0.5006 -0.1407c 0.1799,-0.1407 0.1799,-0.3922 0.1799 -0.3922c 0.0000,-0.2653 -0.1673,-0.4072 -0.1673 -0.4072c -0.1673,-0.1419 -0.4764,-0.1419 -0.4764 -0.1419c -0.2053,-0.0000 -0.4245,0.0461 -0.4245 0.0461c -0.2192,0.0461 -0.4591,0.1384 -0.4591 0.1384v -0.4291 c 0.2792,-0.0738 0.4972,-0.1107 0.4972 -0.1107c 0.2180,-0.0369 0.3864,-0.0369 0.3864 -0.0369c 0.5029,-0.0000 0.8040,0.2526 0.8040 0.2526c 0.3011,0.2526 0.3011,0.6702 0.3011 0.6702c 0.0000,0.2838 -0.1580,0.4729 -0.1580 0.4729c -0.1580,0.1892 -0.4603,0.2676 -0.4603 0.2676ZM 332.2893,256.0995 ZM 333.4474,255.4005 h 0.5814 v 0.4776 l -0.4545,0.8836 h -0.3553 l 0.2284,-0.8836 v -0.4776 ZM 337.9784,256.0995 ZM 338.1769,252.6551 h 0.5006 l 0.7567,1.2989 l 0.7706,-1.2989 h 0.5006 l -1.0312,1.6195 l 1.1051,1.8249 h -0.5006 l -0.8444,-1.4834 l -0.9113,1.4834 h -0.5029 l 1.1535,-1.8249 ZM 343.6676,256.0995 ZM 344.4889,254.6161 h 1.2020 v 0.3784 h -1.2020 v -0.3784 ZM 346.5122,256.0995 ZM 346.7152,253.8824 v -0.4199 l 2.4385,0.9643 v 0.3830 l -2.4385,0.9643 v -0.4222 l 1.9610,-0.7313 ZM 352.2014,256.0995 ZM 352.3098,252.6551 h 2.6277 v 0.3922 h -1.0774 v 3.0522 h -0.4683 v -3.0522 h -1.0820 v -0.3922 ZM 355.0460,256.0995 ZM 356.8362,254.2562 c 0.3391,0.0900 0.5191,0.3195 0.5191 0.3195c 0.1799,0.2296 0.1799,0.5733 0.1799 0.5733c 0.0000,0.4753 -0.3195,0.7463 -0.3195 0.7463c -0.3195,0.2711 -0.8848,0.2711 -0.8848 0.2711c -0.2376,-0.0000 -0.4845,-0.0438 -0.4845 -0.0438c -0.2469,-0.0438 -0.4845,-0.1269 -0.4845 -0.1269v -0.4637 c 0.2353,0.1223 0.4637,0.1823 0.4637 0.1823c 0.2284,0.0600 0.4545,0.0600 0.4545 0.0600c 0.3830,-0.0000 0.5883,-0.1730 0.5883 -0.1730c 0.2053,-0.1730 0.2053,-0.4983 0.2053 -0.4983c 0.0000,-0.2999 -0.2053,-0.4764 -0.2053 -0.4764c -0.2053,-0.1765 -0.5560,-0.1765 -0.5560 -0.1765h -0.3553 v -0.3830 h 0.3553 c 0.3207,-0.0000 0.5006,-0.1407 0.5006 -0.1407c 0.1799,-0.1407 0.1799,-0.3922 0.1799 -0.3922c 0.0000,-0.2653 -0.1673,-0.4072 -0.1673 -0.4072c -0.1673,-0.1419 -0.4764,-0.1419 -0.4764 -0.1419c -0.2053,-0.0000 -0.4245,0.0461 -0.4245 0.0461c -0.2192,0.0461 -0.4591,0.1384 -0.4591 0.1384v -0.4291 c 0.2792,-0.0738 0.4972,-0.1107 0.4972 -0.1107c 0.2180,-0.0369 0.3864,-0.0369 0.3864 -0.0369c 0.5029,-0.0000 0.8040,0.2526 0.8040 0.2526c 0.3011,0.2526 0.3011,0.6702 0.3011 0.6702c 0.0000,0.2838 -0.1580,0.4729 -0.1580 0.4729c -0.1580,0.1892 -0.4603,0.2676 -0.4603 0.2676ZM 357.8906,256.0995 ZM 359.0487,255.4005 h 0.5814 v 0.4776 l -0.4545,0.8836 h -0.3553 l 0.2284,-0.8836 v -0.4776 ZM 363.5797,256.0995 ZM 363.9904,252.6551 h 2.2355 v 0.3553 l -1.7995,2.6969 h 1.8503 v 0.3922 h -2.3370 v -0.3553 l 1.7510,-2.6969 h -1.7003 v -0.3922 ZM 369.2689,256.0995 ZM 370.0902,254.6161 h 1.2020 v 0.3784 h -1.2020 v -0.3784 ZM 372.1135,256.0995 ZM 372.3165,253.8824 v -0.4199 l 2.4385,0.9643 v 0.3830 l -2.4385,0.9643 v -0.4222 l 1.9610,-0.7313 ZM 377.8027,256.0995 ZM 377.9111,252.6551 h 2.6277 v 0.3922 h -1.0774 v 3.0522 h -0.4683 v -3.0522 h -1.0820 v -0.3922 ZM 380.6473,256.0995 ZM 381.5078,255.7073 h 1.5826 v 0.3922 h -2.0925 v -0.3922 l 0.7544,-0.8029 c 0.0000,-0.0000 0.4453,-0.4914 0.4453 -0.4914c 0.2307,-0.2815 0.3115,-0.4556 0.3115 -0.4556c 0.0807,-0.1742 0.0807,-0.3564 0.0807 -0.3564c 0.0000,-0.2884 -0.1696,-0.4522 -0.1696 -0.4522c -0.1696,-0.1638 -0.4649,-0.1638 -0.4649 -0.1638c -0.2099,-0.0000 -0.4406,0.0761 -0.4406 0.0761c -0.2307,0.0761 -0.4891,0.2307 -0.4891 0.2307v -0.4706 c 0.2376,-0.1130 0.4672,-0.1707 0.4672 -0.1707c 0.2296,-0.0577 0.4533,-0.0577 0.4533 -0.0577c 0.5052,-0.0000 0.8132,0.2688 0.8132 0.2688c 0.3080,0.2688 0.3080,0.7048 0.3080 0.7048c 0.0000,0.2215 -0.1027,0.4430 -0.1027 0.4430c -0.1027,0.2215 -0.3334,0.4891 -0.3334 0.4891l -0.3749,0.4153 ZM 383.4919,256.0995 ZM 384.0017,256.5378 h 0.1569 c 0.3253,-0.0000 0.4245,-0.1015 0.4245 -0.1015c 0.0992,-0.1015 0.0992,-0.4268 0.0992 -0.4268v -0.5721 c 0.0000,-0.3599 0.1038,-0.5237 0.1038 -0.5237c 0.1038,-0.1638 0.3599,-0.2261 0.3599 -0.2261c -0.2538,-0.0577 -0.3587,-0.2215 -0.3587 -0.2215c -0.1050,-0.1638 -0.1050,-0.5260 -0.1050 -0.5260v -0.5721 c 0.0000,-0.3253 -0.0992,-0.4268 -0.0992 -0.4268c -0.0992,-0.1015 -0.4245,-0.1015 -0.4245 -0.1015h -0.1569 v -0.3299 h 0.1430 c 0.5745,-0.0000 0.7682,0.1696 0.7682 0.1696c 0.1938,0.1696 0.1938,0.6794 0.1938 0.6794v 0.5537 c 0.0000,0.3461 0.1234,0.4776 0.1234 0.4776c 0.1234,0.1315 0.4487,0.1315 0.4487 0.1315h 0.1477 v 0.3299 h -0.1477 c -0.3253,-0.0000 -0.4487,0.1338 -0.4487 0.1338c -0.1234,0.1338 -0.1234,0.4822 -0.1234 0.4822v 0.5514 c 0.0000,0.5099 -0.1938,0.6806 -0.1938 0.6806c -0.1938,0.1707 -0.7682,0.1707 -0.7682 0.1707h -0.1430 v -0.3322 Z"/></g><g stroke-linejoin="miter" stroke-opacity="1.0" fill-opacity="1.0" stroke="rgb(0,0,0)" stroke-width="2.0e-4" fill="rgb(0,0,0)" stroke-linecap="butt" stroke-miterlimit="10.0"><path d="M 202.7693,255.4264 ZM 206.8507,250.8920 v 0.7550 c -0.3314,-0.1930 -0.6669,-0.2894 -0.6669 -0.2894c -0.3356,-0.0965 -0.6837,-0.0965 -0.6837 -0.0965c -0.5243,-0.0000 -0.7823,0.1699 -0.7823 0.1699c -0.2580,0.1699 -0.2580,0.5180 -0.2580 0.5180c 0.0000,0.3146 0.1930,0.4698 0.1930 0.4698c 0.1930,0.1552 0.9606,0.3020 0.9606 0.3020l 0.3104,0.0587 c 0.5747,0.1091 0.8704,0.4362 0.8704 0.4362c 0.2957,0.3272 0.2957,0.8515 0.2957 0.8515c 0.0000,0.6963 -0.4950,1.0885 -0.4950 1.0885c -0.4950,0.3922 -1.3758,0.3922 -1.3758 0.3922c -0.3482,-0.0000 -0.7299,-0.0734 -0.7299 -0.0734c -0.3817,-0.0734 -0.8263,-0.2202 -0.8263 -0.2202v -0.7970 c 0.4320,0.2223 0.8263,0.3335 0.8263 0.3335c 0.3943,0.1112 0.7466,0.1112 0.7466 0.1112c 0.5117,-0.0000 0.7928,-0.2076 0.7928 -0.2076c 0.2810,-0.2076 0.2810,-0.5810 0.2810 -0.5810c 0.0000,-0.5369 -1.0277,-0.7424 -1.0277 -0.7424l -0.0336,-0.0084 l -0.2894,-0.0587 c -0.6669,-0.1300 -0.9732,-0.4383 -0.9732 -0.4383c -0.3062,-0.3083 -0.3062,-0.8410 -0.3062 -0.8410c 0.0000,-0.6753 0.4572,-1.0424 0.4572 -1.0424c 0.4572,-0.3670 1.3045,-0.3670 1.3045 -0.3670c 0.3775,-0.0000 0.7257,0.0692 0.7257 0.0692c 0.3482,0.0692 0.6837,0.2076 0.6837 0.2076ZM 207.9413,255.4264 ZM 211.6536,248.9079 c -0.5579,0.9564 -0.8326,1.9065 -0.8326 1.9065c -0.2747,0.9501 -0.2747,1.9148 -0.2747 1.9148c 0.0000,0.9606 0.2747,1.9128 0.2747 1.9128c 0.2747,0.9522 0.8326,1.9169 0.8326 1.9169h -0.6711 c -0.6334,-0.9983 -0.9438,-1.9442 -0.9438 -1.9442c -0.3104,-0.9459 -0.3104,-1.8855 -0.3104 -1.8855c 0.0000,-0.9354 0.3104,-1.8834 0.3104 -1.8834c 0.3104,-0.9480 0.9438,-1.9379 0.9438 -1.9379h 0.6711 ZM 213.1133,255.4264 ZM 216.0579,253.0648 h -0.2559 c -0.6753,-0.0000 -1.0172,0.2370 -1.0172 0.2370c -0.3419,0.2370 -0.3419,0.7068 -0.3419 0.7068c 0.0000,0.4237 0.2559,0.6586 0.2559 0.6586c 0.2559,0.2349 0.7089,0.2349 0.7089 0.2349c 0.6376,-0.0000 1.0025,-0.4425 1.0025 -0.4425c 0.3649,-0.4425 0.3691,-1.2227 0.3691 -1.2227v -0.1720 h -0.7215 ZM 216.0579,253.0648 ZM 217.5554,252.7460 v 2.6804 h -0.7760 v -0.6963 c -0.2475,0.4195 -0.6229,0.6187 -0.6229 0.6187c -0.3754,0.1992 -0.9123,0.1992 -0.9123 0.1992c -0.7173,-0.0000 -1.1451,-0.4048 -1.1451 -0.4048c -0.4279,-0.4048 -0.4279,-1.0843 -0.4279 -1.0843c 0.0000,-0.7844 0.5264,-1.1913 0.5264 -1.1913c 0.5264,-0.4069 1.5457,-0.4069 1.5457 -0.4069h 1.0361 v -0.1216 c -0.0042,-0.5621 -0.2852,-0.8159 -0.2852 -0.8159c -0.2810,-0.2538 -0.8977,-0.2538 -0.8977 -0.2538c -0.3943,-0.0000 -0.7970,0.1133 -0.7970 0.1133c -0.4027,0.1133 -0.7844,0.3314 -0.7844 0.3314v -0.7718 c 0.4279,-0.1636 0.8201,-0.2454 0.8201 -0.2454c 0.3922,-0.0818 0.7613,-0.0818 0.7613 -0.0818c 0.5831,-0.0000 0.9962,0.1720 0.9962 0.1720c 0.4132,0.1720 0.6690,0.5159 0.6690 0.5159c 0.1594,0.2097 0.2265,0.5180 0.2265 0.5180c 0.0671,0.3083 0.0671,0.9249 0.0671 0.9249ZM 218.2853,255.4264 ZM 221.8843,251.3282 v -2.4287 h 0.7718 v 6.5268 h -0.7718 v -0.5914 c -0.1930,0.3482 -0.5138,0.5306 -0.5138 0.5306c -0.3209,0.1825 -0.7404,0.1825 -0.7404 0.1825c -0.8515,-0.0000 -1.3402,-0.6607 -1.3402 -0.6607c -0.4887,-0.6607 -0.4887,-1.8226 -0.4887 -1.8226c 0.0000,-1.1451 0.4908,-1.7974 0.4908 -1.7974c 0.4908,-0.6523 1.3381,-0.6523 1.3381 -0.6523c 0.4237,-0.0000 0.7466,0.1825 0.7466 0.1825c 0.3230,0.1825 0.5076,0.5306 0.5076 0.5306ZM 221.8843,251.3282 ZM 219.6150,253.0816 c 0.0000,0.8977 0.2852,1.3549 0.2852 1.3549c 0.2852,0.4572 0.8431,0.4572 0.8431 0.4572c 0.5579,-0.0000 0.8494,-0.4614 0.8494 -0.4614c 0.2915,-0.4614 0.2915,-1.3507 0.2915 -1.3507c 0.0000,-0.8935 -0.2915,-1.3528 -0.2915 -1.3528c -0.2915,-0.4593 -0.8494,-0.4593 -0.8494 -0.4593c -0.5579,-0.0000 -0.8431,0.4572 -0.8431 0.4572c -0.2852,0.4572 -0.2852,1.3549 -0.2852 1.3549ZM 223.4573,255.4264 ZM 227.0563,251.3282 v -2.4287 h 0.7718 v 6.5268 h -0.7718 v -0.5914 c -0.1930,0.3482 -0.5138,0.5306 -0.5138 0.5306c -0.3209,0.1825 -0.7404,0.1825 -0.7404 0.1825c -0.8515,-0.0000 -1.3402,-0.6607 -1.3402 -0.6607c -0.4887,-0.6607 -0.4887,-1.8226 -0.4887 -1.8226c 0.0000,-1.1451 0.4908,-1.7974 0.4908 -1.7974c 0.4908,-0.6523 1.3381,-0.6523 1.3381 -0.6523c 0.4237,-0.0000 0.7466,0.1825 0.7466 0.1825c 0.3230,0.1825 0.5076,0.5306 0.5076 0.5306ZM 227.0563,251.3282 ZM 224.7870,253.0816 c 0.0000,0.8977 0.2852,1.3549 0.2852 1.3549c 0.2852,0.4572 0.8431,0.4572 0.8431 0.4572c 0.5579,-0.0000 0.8494,-0.4614 0.8494 -0.4614c 0.2915,-0.4614 0.2915,-1.3507 0.2915 -1.3507c 0.0000,-0.8935 -0.2915,-1.3528 -0.2915 -1.3528c -0.2915,-0.4593 -0.8494,-0.4593 -0.8494 -0.4593c -0.5579,-0.0000 -0.8431,0.4572 -0.8431 0.4572c -0.2852,0.4572 -0.2852,1.3549 -0.2852 1.3549ZM 228.6292,255.4264 ZM 232.3415,248.9079 c -0.5579,0.9564 -0.8326,1.9065 -0.8326 1.9065c -0.2747,0.9501 -0.2747,1.9148 -0.2747 1.9148c 0.0000,0.9606 0.2747,1.9128 0.2747 1.9128c 0.2747,0.9522 0.8326,1.9169 0.8326 1.9169h -0.6711 c -0.6334,-0.9983 -0.9438,-1.9442 -0.9438 -1.9442c -0.3104,-0.9459 -0.3104,-1.8855 -0.3104 -1.8855c 0.0000,-0.9354 0.3104,-1.8834 0.3104 -1.8834c 0.3104,-0.9480 0.9438,-1.9379 0.9438 -1.9379h 0.6711 ZM 233.8012,255.4264 ZM 233.9984,249.1638 h 4.7777 v 0.7131 h -1.9589 v 5.5495 h -0.8515 v -5.5495 h -1.9673 v -0.7131 ZM 238.9732,255.4264 ZM 240.5378,254.7133 h 2.8775 v 0.7131 h -3.8045 v -0.7131 l 1.3716,-1.4597 c 0.0000,-0.0000 0.8096,-0.8935 0.8096 -0.8935c 0.4195,-0.5117 0.5663,-0.8284 0.5663 -0.8284c 0.1468,-0.3167 0.1468,-0.6481 0.1468 -0.6481c 0.0000,-0.5243 -0.3083,-0.8221 -0.3083 -0.8221c -0.3083,-0.2978 -0.8452,-0.2978 -0.8452 -0.2978c -0.3817,-0.0000 -0.8012,0.1384 -0.8012 0.1384c -0.4195,0.1384 -0.8893,0.4195 -0.8893 0.4195v -0.8557 c 0.4320,-0.2055 0.8494,-0.3104 0.8494 -0.3104c 0.4174,-0.1049 0.8242,-0.1049 0.8242 -0.1049c 0.9186,-0.0000 1.4786,0.4887 1.4786 0.4887c 0.5600,0.4887 0.5600,1.2815 0.5600 1.2815c 0.0000,0.4027 -0.1867,0.8054 -0.1867 0.8054c -0.1867,0.4027 -0.6061,0.8893 -0.6061 0.8893l -0.6816,0.7550 ZM 244.1452,255.4264 ZM 246.2509,254.1554 h 1.0570 v 0.8683 l -0.8263,1.6065 h -0.6460 l 0.4153,-1.6065 v -0.8683 ZM 249.3172,255.4264 ZM 249.5143,249.1638 h 4.7777 v 0.7131 h -1.9589 v 5.5495 h -0.8515 v -5.5495 h -1.9673 v -0.7131 ZM 254.4891,255.4264 ZM 257.7442,252.0749 c 0.6166,0.1636 0.9438,0.5810 0.9438 0.5810c 0.3272,0.4174 0.3272,1.0424 0.3272 1.0424c 0.0000,0.8641 -0.5810,1.3570 -0.5810 1.3570c -0.5810,0.4929 -1.6086,0.4929 -1.6086 0.4929c -0.4320,-0.0000 -0.8809,-0.0797 -0.8809 -0.0797c -0.4488,-0.0797 -0.8809,-0.2307 -0.8809 -0.2307v -0.8431 c 0.4279,0.2223 0.8431,0.3314 0.8431 0.3314c 0.4153,0.1091 0.8263,0.1091 0.8263 0.1091c 0.6963,-0.0000 1.0696,-0.3146 1.0696 -0.3146c 0.3733,-0.3146 0.3733,-0.9060 0.3733 -0.9060c 0.0000,-0.5453 -0.3733,-0.8662 -0.3733 -0.8662c -0.3733,-0.3209 -1.0109,-0.3209 -1.0109 -0.3209h -0.6460 v -0.6963 h 0.6460 c 0.5831,-0.0000 0.9102,-0.2559 0.9102 -0.2559c 0.3272,-0.2559 0.3272,-0.7131 0.3272 -0.7131c 0.0000,-0.4824 -0.3041,-0.7404 -0.3041 -0.7404c -0.3041,-0.2580 -0.8662,-0.2580 -0.8662 -0.2580c -0.3733,-0.0000 -0.7718,0.0839 -0.7718 0.0839c -0.3985,0.0839 -0.8347,0.2517 -0.8347 0.2517v -0.7802 c 0.5076,-0.1342 0.9039,-0.2013 0.9039 -0.2013c 0.3964,-0.0671 0.7026,-0.0671 0.7026 -0.0671c 0.9144,-0.0000 1.4618,0.4593 1.4618 0.4593c 0.5474,0.4593 0.5474,1.2185 0.5474 1.2185c 0.0000,0.5159 -0.2873,0.8599 -0.2873 0.8599c -0.2873,0.3440 -0.8368,0.4866 -0.8368 0.4866ZM 259.6611,255.4264 ZM 261.1209,248.9079 h 0.6711 c 0.6334,0.9899 0.9438,1.9379 0.9438 1.9379c 0.3104,0.9480 0.3104,1.8834 0.3104 1.8834c 0.0000,0.9438 -0.3104,1.8918 -0.3104 1.8918c -0.3104,0.9480 -0.9438,1.9379 -0.9438 1.9379h -0.6711 c 0.5579,-0.9732 0.8326,-1.9253 0.8326 -1.9253c 0.2747,-0.9522 0.2747,-1.9044 0.2747 -1.9044c 0.0000,-0.9564 -0.2747,-1.9086 -0.2747 -1.9086c -0.2747,-0.9522 -0.8326,-1.9128 -0.8326 -1.9128ZM 264.8331,255.4264 ZM 266.2928,248.9079 h 0.6711 c 0.6334,0.9899 0.9438,1.9379 0.9438 1.9379c 0.3104,0.9480 0.3104,1.8834 0.3104 1.8834c 0.0000,0.9438 -0.3104,1.8918 -0.3104 1.8918c -0.3104,0.9480 -0.9438,1.9379 -0.9438 1.9379h -0.6711 c 0.5579,-0.9732 0.8326,-1.9253 0.8326 -1.9253c 0.2747,-0.9522 0.2747,-1.9044 0.2747 -1.9044c 0.0000,-0.9564 -0.2747,-1.9086 -0.2747 -1.9086c -0.2747,-0.9522 -0.8326,-1.9128 -0.8326 -1.9128Z"/></g><g stroke-linejoin="miter" stroke-opacity="1.0" fill-opacity="1.0" stroke="rgb(0,0,0)" stroke-width="2.0" fill="rgb(255,255,255)" stroke-linecap="butt" stroke-miterlimit="10.0"><path d="M 384.7744,201.7261 l -0.0000,-21.6460 h -65.2903 l -0.0000,21.6460 Z"/></g><g stroke-linejoin="miter" stroke-opacity="1.0" fill-opacity="1.0" stroke="rgb(0,0,0)" stroke-width="1.1e-4" fill="rgb(0,0,0)" stroke-linecap="butt" stroke-miterlimit="10.0"></g><g stroke-linejoin="miter" stroke-opacity="1.0" fill-opacity="1.0" stroke="rgb(0,0,0)" stroke-width="2.0e-4" fill="rgb(0,0,0)" stroke-linecap="butt" stroke-miterlimit="10.0"><path d="M 325.8839,193.5646 ZM 328.8285,191.2030 h -0.2559 c -0.6753,-0.0000 -1.0172,0.2370 -1.0172 0.2370c -0.3419,0.2370 -0.3419,0.7068 -0.3419 0.7068c 0.0000,0.4237 0.2559,0.6586 0.2559 0.6586c 0.2559,0.2349 0.7089,0.2349 0.7089 0.2349c 0.6376,-0.0000 1.0025,-0.4425 1.0025 -0.4425c 0.3649,-0.4425 0.3691,-1.2227 0.3691 -1.2227v -0.1720 h -0.7215 ZM 328.8285,191.2030 ZM 330.3260,190.8842 v 2.6804 h -0.7760 v -0.6963 c -0.2475,0.4195 -0.6229,0.6187 -0.6229 0.6187c -0.3754,0.1992 -0.9123,0.1992 -0.9123 0.1992c -0.7173,-0.0000 -1.1451,-0.4048 -1.1451 -0.4048c -0.4279,-0.4048 -0.4279,-1.0843 -0.4279 -1.0843c 0.0000,-0.7844 0.5264,-1.1913 0.5264 -1.1913c 0.5264,-0.4069 1.5457,-0.4069 1.5457 -0.4069h 1.0361 v -0.1216 c -0.0042,-0.5621 -0.2852,-0.8159 -0.2852 -0.8159c -0.2810,-0.2538 -0.8977,-0.2538 -0.8977 -0.2538c -0.3943,-0.0000 -0.7970,0.1133 -0.7970 0.1133c -0.4027,0.1133 -0.7844,0.3314 -0.7844 0.3314v -0.7718 c 0.4279,-0.1636 0.8201,-0.2454 0.8201 -0.2454c 0.3922,-0.0818 0.7613,-0.0818 0.7613 -0.0818c 0.5831,-0.0000 0.9962,0.1720 0.9962 0.1720c 0.4132,0.1720 0.6690,0.5159 0.6690 0.5159c 0.1594,0.2097 0.2265,0.5180 0.2265 0.5180c 0.0671,0.3083 0.0671,0.9249 0.0671 0.9249ZM 331.0559,193.5646 ZM 334.6549,189.4664 v -2.4287 h 0.7718 v 6.5268 h -0.7718 v -0.5914 c -0.1930,0.3482 -0.5138,0.5306 -0.5138 0.5306c -0.3209,0.1825 -0.7404,0.1825 -0.7404 0.1825c -0.8515,-0.0000 -1.3402,-0.6607 -1.3402 -0.6607c -0.4887,-0.6607 -0.4887,-1.8226 -0.4887 -1.8226c 0.0000,-1.1451 0.4908,-1.7974 0.4908 -1.7974c 0.4908,-0.6523 1.3381,-0.6523 1.3381 -0.6523c 0.4237,-0.0000 0.7466,0.1825 0.7466 0.1825c 0.3230,0.1825 0.5076,0.5306 0.5076 0.5306ZM 334.6549,189.4664 ZM 332.3856,191.2198 c 0.0000,0.8977 0.2852,1.3549 0.2852 1.3549c 0.2852,0.4572 0.8431,0.4572 0.8431 0.4572c 0.5579,-0.0000 0.8494,-0.4614 0.8494 -0.4614c 0.2915,-0.4614 0.2915,-1.3507 0.2915 -1.3507c 0.0000,-0.8935 -0.2915,-1.3528 -0.2915 -1.3528c -0.2915,-0.4593 -0.8494,-0.4593 -0.8494 -0.4593c -0.5579,-0.0000 -0.8431,0.4572 -0.8431 0.4572c -0.2852,0.4572 -0.2852,1.3549 -0.2852 1.3549ZM 336.2279,193.5646 ZM 339.8269,189.4664 v -2.4287 h 0.7718 v 6.5268 h -0.7718 v -0.5914 c -0.1930,0.3482 -0.5138,0.5306 -0.5138 0.5306c -0.3209,0.1825 -0.7404,0.1825 -0.7404 0.1825c -0.8515,-0.0000 -1.3402,-0.6607 -1.3402 -0.6607c -0.4887,-0.6607 -0.4887,-1.8226 -0.4887 -1.8226c 0.0000,-1.1451 0.4908,-1.7974 0.4908 -1.7974c 0.4908,-0.6523 1.3381,-0.6523 1.3381 -0.6523c 0.4237,-0.0000 0.7466,0.1825 0.7466 0.1825c 0.3230,0.1825 0.5076,0.5306 0.5076 0.5306ZM 339.8269,189.4664 ZM 337.5576,191.2198 c 0.0000,0.8977 0.2852,1.3549 0.2852 1.3549c 0.2852,0.4572 0.8431,0.4572 0.8431 0.4572c 0.5579,-0.0000 0.8494,-0.4614 0.8494 -0.4614c 0.2915,-0.4614 0.2915,-1.3507 0.2915 -1.3507c 0.0000,-0.8935 -0.2915,-1.3528 -0.2915 -1.3528c -0.2915,-0.4593 -0.8494,-0.4593 -0.8494 -0.4593c -0.5579,-0.0000 -0.8431,0.4572 -0.8431 0.4572c -0.2852,0.4572 -0.2852,1.3549 -0.2852 1.3549ZM 341.3999,193.5646 ZM 345.1121,187.0461 c -0.5579,0.9564 -0.8326,1.9065 -0.8326 1.9065c -0.2747,0.9501 -0.2747,1.9148 -0.2747 1.9148c 0.0000,0.9606 0.2747,1.9128 0.2747 1.9128c 0.2747,0.9522 0.8326,1.9169 0.8326 1.9169h -0.6711 c -0.6334,-0.9983 -0.9438,-1.9442 -0.9438 -1.9442c -0.3104,-0.9459 -0.3104,-1.8855 -0.3104 -1.8855c 0.0000,-0.9354 0.3104,-1.8834 0.3104 -1.8834c 0.3104,-0.9480 0.9438,-1.9379 0.9438 -1.9379h 0.6711 ZM 346.5718,193.5646 ZM 346.7690,187.3020 h 4.7777 v 0.7131 h -1.9589 v 5.5495 h -0.8515 v -5.5495 h -1.9673 v -0.7131 ZM 351.7438,193.5646 ZM 353.7698,190.4186 c 0.0000,-0.2307 0.1615,-0.3985 0.1615 -0.3985c 0.1615,-0.1678 0.3880,-0.1678 0.3880 -0.1678c 0.2349,-0.0000 0.4027,0.1678 0.4027 0.1678c 0.1678,0.1678 0.1678,0.3985 0.1678 0.3985c 0.0000,0.2349 -0.1657,0.3985 -0.1657 0.3985c -0.1657,0.1636 -0.4048,0.1636 -0.4048 0.1636c -0.2349,-0.0000 -0.3922,-0.1594 -0.3922 -0.1594c -0.1573,-0.1594 -0.1573,-0.4027 -0.1573 -0.4027ZM 353.7698,190.4186 ZM 354.3277,187.8599 c -0.5914,-0.0000 -0.8830,0.6376 -0.8830 0.6376c -0.2915,0.6376 -0.2915,1.9421 -0.2915 1.9421c 0.0000,1.3003 0.2915,1.9379 0.2915 1.9379c 0.2915,0.6376 0.8830,0.6376 0.8830 0.6376c 0.5956,-0.0000 0.8872,-0.6376 0.8872 -0.6376c 0.2915,-0.6376 0.2915,-1.9379 0.2915 -1.9379c 0.0000,-1.3045 -0.2915,-1.9421 -0.2915 -1.9421c -0.2915,-0.6376 -0.8872,-0.6376 -0.8872 -0.6376ZM 354.3277,187.8599 ZM 354.3277,187.1887 c 1.0025,-0.0000 1.5164,0.8221 1.5164 0.8221c 0.5138,0.8221 0.5138,2.4287 0.5138 2.4287c 0.0000,1.6023 -0.5138,2.4245 -0.5138 2.4245c -0.5138,0.8221 -1.5164,0.8221 -1.5164 0.8221c -1.0025,-0.0000 -1.5143,-0.8221 -1.5143 -0.8221c -0.5117,-0.8221 -0.5117,-2.4245 -0.5117 -2.4245c 0.0000,-1.6065 0.5117,-2.4287 0.5117 -2.4287c 0.5117,-0.8221 1.5143,-0.8221 1.5143 -0.8221ZM 356.9158,193.5646 ZM 359.0215,192.2936 h 1.0570 v 0.8683 l -0.8263,1.6065 h -0.6460 l 0.4153,-1.6065 v -0.8683 ZM 362.0878,193.5646 ZM 362.2849,187.3020 h 4.7777 v 0.7131 h -1.9589 v 5.5495 h -0.8515 v -5.5495 h -1.9673 v -0.7131 ZM 367.2598,193.5646 ZM 368.3923,192.8515 h 1.3171 v -4.7861 l -1.4178,0.3188 v -0.7718 l 1.4094,-0.3104 h 0.8473 v 5.5495 h 1.3003 v 0.7131 h -3.4564 v -0.7131 ZM 372.4317,193.5646 ZM 373.8915,187.0461 h 0.6711 c 0.6334,0.9899 0.9438,1.9379 0.9438 1.9379c 0.3104,0.9480 0.3104,1.8834 0.3104 1.8834c 0.0000,0.9438 -0.3104,1.8918 -0.3104 1.8918c -0.3104,0.9480 -0.9438,1.9379 -0.9438 1.9379h -0.6711 c 0.5579,-0.9732 0.8326,-1.9253 0.8326 -1.9253c 0.2747,-0.9522 0.2747,-1.9044 0.2747 -1.9044c 0.0000,-0.9564 -0.2747,-1.9086 -0.2747 -1.9086c -0.2747,-0.9522 -0.8326,-1.9128 -0.8326 -1.9128Z"/></g><g stroke-linejoin="miter" stroke-opacity="1.0" fill-opacity="0.0" stroke="rgb(0,0,0)" stroke-width="2.0" fill="rgb(0,0,0)" stroke-linecap="butt" stroke-miterlimit="10.0"><path d="M 134.7006,190.9031 l -5.0000,63.1856 "/></g><g stroke-linejoin="miter" stroke-opacity="1.0" fill-opacity="0.0" stroke="rgb(0,0,0)" stroke-width="2.0" fill="rgb(0,0,0)" stroke-linecap="butt" stroke-miterlimit="10.0"><path d="M 129.7006,254.0886 l -5.0000,58.0648 "/></g><g stroke-linejoin="miter" stroke-opacity="1.0" fill-opacity="1.0" stroke="rgb(0,0,0)" stroke-width="2.0" fill="rgb(255,255,255)" stroke-linecap="butt" stroke-miterlimit="10.0"><path d="M 131.2145,319.0594 l -0.0000,-13.8121 h -13.0277 l -0.0000,13.8121 Z"/></g><g stroke-linejoin="miter" stroke-opacity="1.0" fill-opacity="1.0" stroke="rgb(0,0,0)" stroke-width="2.0e-4" fill="rgb(0,0,0)" stroke-linecap="butt" stroke-miterlimit="10.0"><path d="M 122.1104,314.4982 ZM 126.7749,311.9563 v 0.3775 h -3.3431 v 0.0252 c 0.0000,0.7676 0.4006,1.1871 0.4006 1.1871c 0.4006,0.4195 1.1305,0.4195 1.1305 0.4195c 0.3691,-0.0000 0.7718,-0.1174 0.7718 -0.1174c 0.4027,-0.1174 0.8599,-0.3565 0.8599 -0.3565v 0.7676 c -0.4404,0.1804 -0.8494,0.2706 -0.8494 0.2706c -0.4090,0.0902 -0.7907,0.0902 -0.7907 0.0902c -1.0948,-0.0000 -1.7114,-0.6565 -1.7114 -0.6565c -0.6166,-0.6565 -0.6166,-1.8100 -0.6166 -1.8100c 0.0000,-1.1242 0.6040,-1.7953 0.6040 -1.7953c 0.6040,-0.6711 1.6107,-0.6711 1.6107 -0.6711c 0.8977,-0.0000 1.4157,0.6082 1.4157 0.6082c 0.5180,0.6082 0.5180,1.6611 0.5180 1.6611ZM 126.7749,311.9563 ZM 126.0031,311.7297 c -0.0168,-0.6795 -0.3209,-1.0340 -0.3209 -1.0340c -0.3041,-0.3544 -0.8746,-0.3544 -0.8746 -0.3544c -0.5579,-0.0000 -0.9186,0.3691 -0.9186 0.3691c -0.3607,0.3691 -0.4279,1.0235 -0.4279 1.0235Z"/></g><g stroke-linejoin="miter" stroke-opacity="1.0" fill-opacity="1.0" stroke="rgb(0,0,0)" stroke-width="2.0" fill="rgb(255,255,255)" stroke-linecap="butt" stroke-miterlimit="10.0"><path d="M 186.4893,265.2474 l -0.0000,-22.3174 h -113.5774 l -0.0000,22.3174 Z"/></g><g stroke-linejoin="miter" stroke-opacity="1.0" fill-opacity="1.0" stroke="rgb(0,0,0)" stroke-width="1.1e-4" fill="rgb(0,0,0)" stroke-linecap="butt" stroke-miterlimit="10.0"><path d="M 125.7785,257.3033 ZM 128.1133,257.7417 v 0.3322 h -0.1477 c -0.5745,-0.0000 -0.7694,-0.1707 -0.7694 -0.1707c -0.1949,-0.1707 -0.1949,-0.6806 -0.1949 -0.6806v -0.5514 c 0.0000,-0.3484 -0.1234,-0.4822 -0.1234 -0.4822c -0.1234,-0.1338 -0.4464,-0.1338 -0.4464 -0.1338h -0.1430 v -0.3299 h 0.1430 c 0.3253,-0.0000 0.4476,-0.1315 0.4476 -0.1315c 0.1223,-0.1315 0.1223,-0.4776 0.1223 -0.4776v -0.5537 c 0.0000,-0.5099 0.1949,-0.6794 0.1949 -0.6794c 0.1949,-0.1696 0.7694,-0.1696 0.7694 -0.1696h 0.1477 v 0.3299 h -0.1615 c -0.3230,-0.0000 -0.4210,0.1004 -0.4210 0.1004c -0.0980,0.1004 -0.0980,0.4280 -0.0980 0.4280v 0.5721 c 0.0000,0.3622 -0.1050,0.5260 -0.1050 0.5260c -0.1050,0.1638 -0.3587,0.2215 -0.3587 0.2215c 0.2561,0.0623 0.3599,0.2261 0.3599 0.2261c 0.1038,0.1638 0.1038,0.5237 0.1038 0.5237v 0.5721 c 0.0000,0.3299 0.0980,0.4291 0.0980 0.4291c 0.0980,0.0992 0.4210,0.0992 0.4210 0.0992h 0.1615 ZM 128.6231,257.3033 ZM 128.7316,253.8589 h 2.6277 v 0.3922 h -1.0774 v 3.0522 h -0.4683 v -3.0522 h -1.0820 v -0.3922 ZM 131.4677,257.3033 ZM 132.5820,255.5731 c 0.0000,-0.1269 0.0888,-0.2192 0.0888 -0.2192c 0.0888,-0.0923 0.2134,-0.0923 0.2134 -0.0923c 0.1292,-0.0000 0.2215,0.0923 0.2215 0.0923c 0.0923,0.0923 0.0923,0.2192 0.0923 0.2192c 0.0000,0.1292 -0.0911,0.2192 -0.0911 0.2192c -0.0911,0.0900 -0.2226,0.0900 -0.2226 0.0900c -0.1292,-0.0000 -0.2157,-0.0877 -0.2157 -0.0877c -0.0865,-0.0877 -0.0865,-0.2215 -0.0865 -0.2215ZM 132.5820,255.5731 ZM 132.8889,254.1658 c -0.3253,-0.0000 -0.4856,0.3507 -0.4856 0.3507c -0.1603,0.3507 -0.1603,1.0682 -0.1603 1.0682c 0.0000,0.7152 0.1603,1.0659 0.1603 1.0659c 0.1603,0.3507 0.4856,0.3507 0.4856 0.3507c 0.3276,-0.0000 0.4879,-0.3507 0.4879 -0.3507c 0.1603,-0.3507 0.1603,-1.0659 0.1603 -1.0659c 0.0000,-0.7175 -0.1603,-1.0682 -0.1603 -1.0682c -0.1603,-0.3507 -0.4879,-0.3507 -0.4879 -0.3507ZM 132.8889,254.1658 ZM 132.8889,253.7966 c 0.5514,-0.0000 0.8340,0.4522 0.8340 0.4522c 0.2826,0.4522 0.2826,1.3358 0.2826 1.3358c 0.0000,0.8813 -0.2826,1.3335 -0.2826 1.3335c -0.2826,0.4522 -0.8340,0.4522 -0.8340 0.4522c -0.5514,-0.0000 -0.8328,-0.4522 -0.8328 -0.4522c -0.2815,-0.4522 -0.2815,-1.3335 -0.2815 -1.3335c 0.0000,-0.8836 0.2815,-1.3358 0.2815 -1.3358c 0.2815,-0.4522 0.8328,-0.4522 0.8328 -0.4522ZM 137.1569,257.3033 ZM 137.9782,255.8199 h 1.2020 v 0.3784 h -1.2020 v -0.3784 ZM 140.0015,257.3033 ZM 140.2045,255.0863 v -0.4199 l 2.4385,0.9643 v 0.3830 l -2.4385,0.9643 v -0.4222 l 1.9610,-0.7313 ZM 145.6907,257.3033 ZM 146.8050,255.5731 c 0.0000,-0.1269 0.0888,-0.2192 0.0888 -0.2192c 0.0888,-0.0923 0.2134,-0.0923 0.2134 -0.0923c 0.1292,-0.0000 0.2215,0.0923 0.2215 0.0923c 0.0923,0.0923 0.0923,0.2192 0.0923 0.2192c 0.0000,0.1292 -0.0911,0.2192 -0.0911 0.2192c -0.0911,0.0900 -0.2226,0.0900 -0.2226 0.0900c -0.1292,-0.0000 -0.2157,-0.0877 -0.2157 -0.0877c -0.0865,-0.0877 -0.0865,-0.2215 -0.0865 -0.2215ZM 146.8050,255.5731 ZM 147.1118,254.1658 c -0.3253,-0.0000 -0.4856,0.3507 -0.4856 0.3507c -0.1603,0.3507 -0.1603,1.0682 -0.1603 1.0682c 0.0000,0.7152 0.1603,1.0659 0.1603 1.0659c 0.1603,0.3507 0.4856,0.3507 0.4856 0.3507c 0.3276,-0.0000 0.4879,-0.3507 0.4879 -0.3507c 0.1603,-0.3507 0.1603,-1.0659 0.1603 -1.0659c 0.0000,-0.7175 -0.1603,-1.0682 -0.1603 -1.0682c -0.1603,-0.3507 -0.4879,-0.3507 -0.4879 -0.3507ZM 147.1118,254.1658 ZM 147.1118,253.7966 c 0.5514,-0.0000 0.8340,0.4522 0.8340 0.4522c 0.2826,0.4522 0.2826,1.3358 0.2826 1.3358c 0.0000,0.8813 -0.2826,1.3335 -0.2826 1.3335c -0.2826,0.4522 -0.8340,0.4522 -0.8340 0.4522c -0.5514,-0.0000 -0.8328,-0.4522 -0.8328 -0.4522c -0.2815,-0.4522 -0.2815,-1.3335 -0.2815 -1.3335c 0.0000,-0.8836 0.2815,-1.3358 0.2815 -1.3358c 0.2815,-0.4522 0.8328,-0.4522 0.8328 -0.4522ZM 148.5353,257.3033 ZM 149.6934,256.6043 h 0.5814 v 0.4776 l -0.4545,0.8836 h -0.3553 l 0.2284,-0.8836 v -0.4776 ZM 154.2244,257.3033 ZM 154.3329,253.8589 h 2.6277 v 0.3922 h -1.0774 v 3.0522 h -0.4683 v -3.0522 h -1.0820 v -0.3922 ZM 157.0690,257.3033 ZM 157.6919,256.9112 h 0.7244 v -2.6323 l -0.7798,0.1753 v -0.4245 l 0.7752,-0.1707 h 0.4660 v 3.0522 h 0.7152 v 0.3922 h -1.9010 v -0.3922 ZM 162.7582,257.3033 ZM 163.5795,255.8199 h 1.2020 v 0.3784 h -1.2020 v -0.3784 ZM 165.6028,257.3033 ZM 165.8058,255.0863 v -0.4199 l 2.4385,0.9643 v 0.3830 l -2.4385,0.9643 v -0.4222 l 1.9610,-0.7313 ZM 171.2920,257.3033 ZM 171.4004,253.8589 h 2.6277 v 0.3922 h -1.0774 v 3.0522 h -0.4683 v -3.0522 h -1.0820 v -0.3922 ZM 174.1366,257.3033 ZM 175.8322,254.2834 l -1.0866,1.8203 h 1.0866 v -1.8203 ZM 175.8322,254.2834 ZM 175.7561,253.8589 h 0.5398 v 2.2448 h 0.4591 v 0.3784 h -0.4591 v 0.8213 h -0.4637 v -0.8213 h -1.4604 v -0.4406 ZM 176.9811,257.3033 ZM 177.4910,257.7417 h 0.1569 c 0.3253,-0.0000 0.4245,-0.1015 0.4245 -0.1015c 0.0992,-0.1015 0.0992,-0.4268 0.0992 -0.4268v -0.5721 c 0.0000,-0.3599 0.1038,-0.5237 0.1038 -0.5237c 0.1038,-0.1638 0.3599,-0.2261 0.3599 -0.2261c -0.2538,-0.0577 -0.3587,-0.2215 -0.3587 -0.2215c -0.1050,-0.1638 -0.1050,-0.5260 -0.1050 -0.5260v -0.5721 c 0.0000,-0.3253 -0.0992,-0.4268 -0.0992 -0.4268c -0.0992,-0.1015 -0.4245,-0.1015 -0.4245 -0.1015h -0.1569 v -0.3299 h 0.1430 c 0.5745,-0.0000 0.7682,0.1696 0.7682 0.1696c 0.1938,0.1696 0.1938,0.6794 0.1938 0.6794v 0.5537 c 0.0000,0.3461 0.1234,0.4776 0.1234 0.4776c 0.1234,0.1315 0.4487,0.1315 0.4487 0.1315h 0.1477 v 0.3299 h -0.1477 c -0.3253,-0.0000 -0.4487,0.1338 -0.4487 0.1338c -0.1234,0.1338 -0.1234,0.4822 -0.1234 0.4822v 0.5514 c 0.0000,0.5099 -0.1938,0.6806 -0.1938 0.6806c -0.1938,0.1707 -0.7682,0.1707 -0.7682 0.1707h -0.1430 v -0.3322 Z"/></g><g stroke-linejoin="miter" stroke-opacity="1.0" fill-opacity="1.0" stroke="rgb(0,0,0)" stroke-width="2.0e-4" fill="rgb(0,0,0)" stroke-linecap="butt" stroke-miterlimit="10.0"><path d="M 79.5275,256.6302 ZM 82.4721,254.2687 h -0.2559 c -0.6753,-0.0000 -1.0172,0.2370 -1.0172 0.2370c -0.3419,0.2370 -0.3419,0.7068 -0.3419 0.7068c 0.0000,0.4237 0.2559,0.6586 0.2559 0.6586c 0.2559,0.2349 0.7089,0.2349 0.7089 0.2349c 0.6376,-0.0000 1.0025,-0.4425 1.0025 -0.4425c 0.3649,-0.4425 0.3691,-1.2227 0.3691 -1.2227v -0.1720 h -0.7215 ZM 82.4721,254.2687 ZM 83.9696,253.9499 v 2.6804 h -0.7760 v -0.6963 c -0.2475,0.4195 -0.6229,0.6187 -0.6229 0.6187c -0.3754,0.1992 -0.9123,0.1992 -0.9123 0.1992c -0.7173,-0.0000 -1.1451,-0.4048 -1.1451 -0.4048c -0.4279,-0.4048 -0.4279,-1.0843 -0.4279 -1.0843c 0.0000,-0.7844 0.5264,-1.1913 0.5264 -1.1913c 0.5264,-0.4069 1.5457,-0.4069 1.5457 -0.4069h 1.0361 v -0.1216 c -0.0042,-0.5621 -0.2852,-0.8159 -0.2852 -0.8159c -0.2810,-0.2538 -0.8977,-0.2538 -0.8977 -0.2538c -0.3943,-0.0000 -0.7970,0.1133 -0.7970 0.1133c -0.4027,0.1133 -0.7844,0.3314 -0.7844 0.3314v -0.7718 c 0.4279,-0.1636 0.8201,-0.2454 0.8201 -0.2454c 0.3922,-0.0818 0.7613,-0.0818 0.7613 -0.0818c 0.5831,-0.0000 0.9962,0.1720 0.9962 0.1720c 0.4132,0.1720 0.6690,0.5159 0.6690 0.5159c 0.1594,0.2097 0.2265,0.5180 0.2265 0.5180c 0.0671,0.3083 0.0671,0.9249 0.0671 0.9249ZM 84.6995,256.6302 ZM 88.2985,252.5321 v -2.4287 h 0.7718 v 6.5268 h -0.7718 v -0.5914 c -0.1930,0.3482 -0.5138,0.5306 -0.5138 0.5306c -0.3209,0.1825 -0.7404,0.1825 -0.7404 0.1825c -0.8515,-0.0000 -1.3402,-0.6607 -1.3402 -0.6607c -0.4887,-0.6607 -0.4887,-1.8226 -0.4887 -1.8226c 0.0000,-1.1451 0.4908,-1.7974 0.4908 -1.7974c 0.4908,-0.6523 1.3381,-0.6523 1.3381 -0.6523c 0.4237,-0.0000 0.7466,0.1825 0.7466 0.1825c 0.3230,0.1825 0.5076,0.5306 0.5076 0.5306ZM 88.2985,252.5321 ZM 86.0292,254.2854 c 0.0000,0.8977 0.2852,1.3549 0.2852 1.3549c 0.2852,0.4572 0.8431,0.4572 0.8431 0.4572c 0.5579,-0.0000 0.8494,-0.4614 0.8494 -0.4614c 0.2915,-0.4614 0.2915,-1.3507 0.2915 -1.3507c 0.0000,-0.8935 -0.2915,-1.3528 -0.2915 -1.3528c -0.2915,-0.4593 -0.8494,-0.4593 -0.8494 -0.4593c -0.5579,-0.0000 -0.8431,0.4572 -0.8431 0.4572c -0.2852,0.4572 -0.2852,1.3549 -0.2852 1.3549ZM 89.8715,256.6302 ZM 93.4705,252.5321 v -2.4287 h 0.7718 v 6.5268 h -0.7718 v -0.5914 c -0.1930,0.3482 -0.5138,0.5306 -0.5138 0.5306c -0.3209,0.1825 -0.7404,0.1825 -0.7404 0.1825c -0.8515,-0.0000 -1.3402,-0.6607 -1.3402 -0.6607c -0.4887,-0.6607 -0.4887,-1.8226 -0.4887 -1.8226c 0.0000,-1.1451 0.4908,-1.7974 0.4908 -1.7974c 0.4908,-0.6523 1.3381,-0.6523 1.3381 -0.6523c 0.4237,-0.0000 0.7466,0.1825 0.7466 0.1825c 0.3230,0.1825 0.5076,0.5306 0.5076 0.5306ZM 93.4705,252.5321 ZM 91.2012,254.2854 c 0.0000,0.8977 0.2852,1.3549 0.2852 1.3549c 0.2852,0.4572 0.8431,0.4572 0.8431 0.4572c 0.5579,-0.0000 0.8494,-0.4614 0.8494 -0.4614c 0.2915,-0.4614 0.2915,-1.3507 0.2915 -1.3507c 0.0000,-0.8935 -0.2915,-1.3528 -0.2915 -1.3528c -0.2915,-0.4593 -0.8494,-0.4593 -0.8494 -0.4593c -0.5579,-0.0000 -0.8431,0.4572 -0.8431 0.4572c -0.2852,0.4572 -0.2852,1.3549 -0.2852 1.3549ZM 95.0434,256.6302 ZM 98.7557,250.1118 c -0.5579,0.9564 -0.8326,1.9065 -0.8326 1.9065c -0.2747,0.9501 -0.2747,1.9148 -0.2747 1.9148c 0.0000,0.9606 0.2747,1.9128 0.2747 1.9128c 0.2747,0.9522 0.8326,1.9169 0.8326 1.9169h -0.6711 c -0.6334,-0.9983 -0.9438,-1.9442 -0.9438 -1.9442c -0.3104,-0.9459 -0.3104,-1.8855 -0.3104 -1.8855c 0.0000,-0.9354 0.3104,-1.8834 0.3104 -1.8834c 0.3104,-0.9480 0.9438,-1.9379 0.9438 -1.9379h 0.6711 ZM 100.2154,256.6302 ZM 102.2414,253.4843 c 0.0000,-0.2307 0.1615,-0.3985 0.1615 -0.3985c 0.1615,-0.1678 0.3880,-0.1678 0.3880 -0.1678c 0.2349,-0.0000 0.4027,0.1678 0.4027 0.1678c 0.1678,0.1678 0.1678,0.3985 0.1678 0.3985c 0.0000,0.2349 -0.1657,0.3985 -0.1657 0.3985c -0.1657,0.1636 -0.4048,0.1636 -0.4048 0.1636c -0.2349,-0.0000 -0.3922,-0.1594 -0.3922 -0.1594c -0.1573,-0.1594 -0.1573,-0.4027 -0.1573 -0.4027ZM 102.2414,253.4843 ZM 102.7993,250.9255 c -0.5914,-0.0000 -0.8830,0.6376 -0.8830 0.6376c -0.2915,0.6376 -0.2915,1.9421 -0.2915 1.9421c 0.0000,1.3003 0.2915,1.9379 0.2915 1.9379c 0.2915,0.6376 0.8830,0.6376 0.8830 0.6376c 0.5956,-0.0000 0.8872,-0.6376 0.8872 -0.6376c 0.2915,-0.6376 0.2915,-1.9379 0.2915 -1.9379c 0.0000,-1.3045 -0.2915,-1.9421 -0.2915 -1.9421c -0.2915,-0.6376 -0.8872,-0.6376 -0.8872 -0.6376ZM 102.7993,250.9255 ZM 102.7993,250.2544 c 1.0025,-0.0000 1.5164,0.8221 1.5164 0.8221c 0.5138,0.8221 0.5138,2.4287 0.5138 2.4287c 0.0000,1.6023 -0.5138,2.4245 -0.5138 2.4245c -0.5138,0.8221 -1.5164,0.8221 -1.5164 0.8221c -1.0025,-0.0000 -1.5143,-0.8221 -1.5143 -0.8221c -0.5117,-0.8221 -0.5117,-2.4245 -0.5117 -2.4245c 0.0000,-1.6065 0.5117,-2.4287 0.5117 -2.4287c 0.5117,-0.8221 1.5143,-0.8221 1.5143 -0.8221ZM 105.3874,256.6302 ZM 107.4931,255.3593 h 1.0570 v 0.8683 l -0.8263,1.6065 h -0.6460 l 0.4153,-1.6065 v -0.8683 ZM 110.5594,256.6302 ZM 110.7565,250.3677 h 4.7777 v 0.7131 h -1.9589 v 5.5495 h -0.8515 v -5.5495 h -1.9673 v -0.7131 ZM 115.7314,256.6302 ZM 118.8144,251.1395 l -1.9757,3.3096 h 1.9757 v -3.3096 ZM 118.8144,251.1395 ZM 118.6760,250.3677 h 0.9815 v 4.0814 h 0.8347 v 0.6879 h -0.8347 v 1.4933 h -0.8431 v -1.4933 h -2.6552 v -0.8012 ZM 120.9033,256.6302 ZM 122.3631,250.1118 h 0.6711 c 0.6334,0.9899 0.9438,1.9379 0.9438 1.9379c 0.3104,0.9480 0.3104,1.8834 0.3104 1.8834c 0.0000,0.9438 -0.3104,1.8918 -0.3104 1.8918c -0.3104,0.9480 -0.9438,1.9379 -0.9438 1.9379h -0.6711 c 0.5579,-0.9732 0.8326,-1.9253 0.8326 -1.9253c 0.2747,-0.9522 0.2747,-1.9044 0.2747 -1.9044c 0.0000,-0.9564 -0.2747,-1.9086 -0.2747 -1.9086c -0.2747,-0.9522 -0.8326,-1.9128 -0.8326 -1.9128Z"/></g><g stroke-linejoin="miter" stroke-opacity="1.0" fill-opacity="1.0" stroke="rgb(0,0,0)" stroke-width="2.0" fill="rgb(255,255,255)" stroke-linecap="butt" stroke-miterlimit="10.0"><path d="M 249.5904,202.9299 l -0.0000,-24.0537 h -229.7796 l -0.0000,24.0537 Z"/></g><g stroke-linejoin="miter" stroke-opacity="1.0" fill-opacity="1.0" stroke="rgb(0,0,0)" stroke-width="1.1e-4" fill="rgb(0,0,0)" stroke-linecap="butt" stroke-miterlimit="10.0"><path d="M 188.3215,194.2377 ZM 190.6563,194.6760 v 0.3322 h -0.1477 c -0.5745,-0.0000 -0.7694,-0.1707 -0.7694 -0.1707c -0.1949,-0.1707 -0.1949,-0.6806 -0.1949 -0.6806v -0.5514 c 0.0000,-0.3484 -0.1234,-0.4822 -0.1234 -0.4822c -0.1234,-0.1338 -0.4464,-0.1338 -0.4464 -0.1338h -0.1430 v -0.3299 h 0.1430 c 0.3253,-0.0000 0.4476,-0.1315 0.4476 -0.1315c 0.1223,-0.1315 0.1223,-0.4776 0.1223 -0.4776v -0.5537 c 0.0000,-0.5099 0.1949,-0.6794 0.1949 -0.6794c 0.1949,-0.1696 0.7694,-0.1696 0.7694 -0.1696h 0.1477 v 0.3299 h -0.1615 c -0.3230,-0.0000 -0.4210,0.1004 -0.4210 0.1004c -0.0980,0.1004 -0.0980,0.4280 -0.0980 0.4280v 0.5721 c 0.0000,0.3622 -0.1050,0.5260 -0.1050 0.5260c -0.1050,0.1638 -0.3587,0.2215 -0.3587 0.2215c 0.2561,0.0623 0.3599,0.2261 0.3599 0.2261c 0.1038,0.1638 0.1038,0.5237 0.1038 0.5237v 0.5721 c 0.0000,0.3299 0.0980,0.4291 0.0980 0.4291c 0.0980,0.0992 0.4210,0.0992 0.4210 0.0992h 0.1615 ZM 191.1661,194.2377 ZM 191.2746,190.7933 h 2.6277 v 0.3922 h -1.0774 v 3.0522 h -0.4683 v -3.0522 h -1.0820 v -0.3922 ZM 194.0107,194.2377 ZM 195.1250,192.5074 c 0.0000,-0.1269 0.0888,-0.2192 0.0888 -0.2192c 0.0888,-0.0923 0.2134,-0.0923 0.2134 -0.0923c 0.1292,-0.0000 0.2215,0.0923 0.2215 0.0923c 0.0923,0.0923 0.0923,0.2192 0.0923 0.2192c 0.0000,0.1292 -0.0911,0.2192 -0.0911 0.2192c -0.0911,0.0900 -0.2226,0.0900 -0.2226 0.0900c -0.1292,-0.0000 -0.2157,-0.0877 -0.2157 -0.0877c -0.0865,-0.0877 -0.0865,-0.2215 -0.0865 -0.2215ZM 195.1250,192.5074 ZM 195.4319,191.1001 c -0.3253,-0.0000 -0.4856,0.3507 -0.4856 0.3507c -0.1603,0.3507 -0.1603,1.0682 -0.1603 1.0682c 0.0000,0.7152 0.1603,1.0659 0.1603 1.0659c 0.1603,0.3507 0.4856,0.3507 0.4856 0.3507c 0.3276,-0.0000 0.4879,-0.3507 0.4879 -0.3507c 0.1603,-0.3507 0.1603,-1.0659 0.1603 -1.0659c 0.0000,-0.7175 -0.1603,-1.0682 -0.1603 -1.0682c -0.1603,-0.3507 -0.4879,-0.3507 -0.4879 -0.3507ZM 195.4319,191.1001 ZM 195.4319,190.7310 c 0.5514,-0.0000 0.8340,0.4522 0.8340 0.4522c 0.2826,0.4522 0.2826,1.3358 0.2826 1.3358c 0.0000,0.8813 -0.2826,1.3335 -0.2826 1.3335c -0.2826,0.4522 -0.8340,0.4522 -0.8340 0.4522c -0.5514,-0.0000 -0.8328,-0.4522 -0.8328 -0.4522c -0.2815,-0.4522 -0.2815,-1.3335 -0.2815 -1.3335c 0.0000,-0.8836 0.2815,-1.3358 0.2815 -1.3358c 0.2815,-0.4522 0.8328,-0.4522 0.8328 -0.4522ZM 199.6999,194.2377 ZM 200.5212,192.7543 h 1.2020 v 0.3784 h -1.2020 v -0.3784 ZM 202.5445,194.2377 ZM 202.7475,192.0206 v -0.4199 l 2.4385,0.9643 v 0.3830 l -2.4385,0.9643 v -0.4222 l 1.9610,-0.7313 ZM 208.2337,194.2377 ZM 209.3480,192.5074 c 0.0000,-0.1269 0.0888,-0.2192 0.0888 -0.2192c 0.0888,-0.0923 0.2134,-0.0923 0.2134 -0.0923c 0.1292,-0.0000 0.2215,0.0923 0.2215 0.0923c 0.0923,0.0923 0.0923,0.2192 0.0923 0.2192c 0.0000,0.1292 -0.0911,0.2192 -0.0911 0.2192c -0.0911,0.0900 -0.2226,0.0900 -0.2226 0.0900c -0.1292,-0.0000 -0.2157,-0.0877 -0.2157 -0.0877c -0.0865,-0.0877 -0.0865,-0.2215 -0.0865 -0.2215ZM 209.3480,192.5074 ZM 209.6548,191.1001 c -0.3253,-0.0000 -0.4856,0.3507 -0.4856 0.3507c -0.1603,0.3507 -0.1603,1.0682 -0.1603 1.0682c 0.0000,0.7152 0.1603,1.0659 0.1603 1.0659c 0.1603,0.3507 0.4856,0.3507 0.4856 0.3507c 0.3276,-0.0000 0.4879,-0.3507 0.4879 -0.3507c 0.1603,-0.3507 0.1603,-1.0659 0.1603 -1.0659c 0.0000,-0.7175 -0.1603,-1.0682 -0.1603 -1.0682c -0.1603,-0.3507 -0.4879,-0.3507 -0.4879 -0.3507ZM 209.6548,191.1001 ZM 209.6548,190.7310 c 0.5514,-0.0000 0.8340,0.4522 0.8340 0.4522c 0.2826,0.4522 0.2826,1.3358 0.2826 1.3358c 0.0000,0.8813 -0.2826,1.3335 -0.2826 1.3335c -0.2826,0.4522 -0.8340,0.4522 -0.8340 0.4522c -0.5514,-0.0000 -0.8328,-0.4522 -0.8328 -0.4522c -0.2815,-0.4522 -0.2815,-1.3335 -0.2815 -1.3335c 0.0000,-0.8836 0.2815,-1.3358 0.2815 -1.3358c 0.2815,-0.4522 0.8328,-0.4522 0.8328 -0.4522ZM 211.0783,194.2377 ZM 212.2364,193.5387 h 0.5814 v 0.4776 l -0.4545,0.8836 h -0.3553 l 0.2284,-0.8836 v -0.4776 ZM 216.7674,194.2377 ZM 216.8759,190.7933 h 2.6277 v 0.3922 h -1.0774 v 3.0522 h -0.4683 v -3.0522 h -1.0820 v -0.3922 ZM 219.6120,194.2377 ZM 220.2349,193.8455 h 0.7244 v -2.6323 l -0.7798,0.1753 v -0.4245 l 0.7752,-0.1707 h 0.4660 v 3.0522 h 0.7152 v 0.3922 h -1.9010 v -0.3922 ZM 225.3012,194.2377 ZM 226.1225,192.7543 h 1.2020 v 0.3784 h -1.2020 v -0.3784 ZM 228.1458,194.2377 ZM 228.3488,192.0206 v -0.4199 l 2.4385,0.9643 v 0.3830 l -2.4385,0.9643 v -0.4222 l 1.9610,-0.7313 ZM 233.8350,194.2377 ZM 233.9434,190.7933 h 2.6277 v 0.3922 h -1.0774 v 3.0522 h -0.4683 v -3.0522 h -1.0820 v -0.3922 ZM 236.6796,194.2377 ZM 238.3752,191.2178 l -1.0866,1.8203 h 1.0866 v -1.8203 ZM 238.3752,191.2178 ZM 238.2991,190.7933 h 0.5398 v 2.2448 h 0.4591 v 0.3784 h -0.4591 v 0.8213 h -0.4637 v -0.8213 h -1.4604 v -0.4406 ZM 239.5241,194.2377 ZM 240.0340,194.6760 h 0.1569 c 0.3253,-0.0000 0.4245,-0.1015 0.4245 -0.1015c 0.0992,-0.1015 0.0992,-0.4268 0.0992 -0.4268v -0.5721 c 0.0000,-0.3599 0.1038,-0.5237 0.1038 -0.5237c 0.1038,-0.1638 0.3599,-0.2261 0.3599 -0.2261c -0.2538,-0.0577 -0.3587,-0.2215 -0.3587 -0.2215c -0.1050,-0.1638 -0.1050,-0.5260 -0.1050 -0.5260v -0.5721 c 0.0000,-0.3253 -0.0992,-0.4268 -0.0992 -0.4268c -0.0992,-0.1015 -0.4245,-0.1015 -0.4245 -0.1015h -0.1569 v -0.3299 h 0.1430 c 0.5745,-0.0000 0.7682,0.1696 0.7682 0.1696c 0.1938,0.1696 0.1938,0.6794 0.1938 0.6794v 0.5537 c 0.0000,0.3461 0.1234,0.4776 0.1234 0.4776c 0.1234,0.1315 0.4487,0.1315 0.4487 0.1315h 0.1477 v 0.3299 h -0.1477 c -0.3253,-0.0000 -0.4487,0.1338 -0.4487 0.1338c -0.1234,0.1338 -0.1234,0.4822 -0.1234 0.4822v 0.5514 c 0.0000,0.5099 -0.1938,0.6806 -0.1938 0.6806c -0.1938,0.1707 -0.7682,0.1707 -0.7682 0.1707h -0.1430 v -0.3322 Z"/></g><g stroke-linejoin="miter" stroke-opacity="1.0" fill-opacity="1.0" stroke="rgb(0,0,0)" stroke-width="2.0e-4" fill="rgb(0,0,0)" stroke-linecap="butt" stroke-miterlimit="10.0"><path d="M 142.0705,193.5646 ZM 145.0151,191.2030 h -0.2559 c -0.6753,-0.0000 -1.0172,0.2370 -1.0172 0.2370c -0.3419,0.2370 -0.3419,0.7068 -0.3419 0.7068c 0.0000,0.4237 0.2559,0.6586 0.2559 0.6586c 0.2559,0.2349 0.7089,0.2349 0.7089 0.2349c 0.6376,-0.0000 1.0025,-0.4425 1.0025 -0.4425c 0.3649,-0.4425 0.3691,-1.2227 0.3691 -1.2227v -0.1720 h -0.7215 ZM 145.0151,191.2030 ZM 146.5126,190.8842 v 2.6804 h -0.7760 v -0.6963 c -0.2475,0.4195 -0.6229,0.6187 -0.6229 0.6187c -0.3754,0.1992 -0.9123,0.1992 -0.9123 0.1992c -0.7173,-0.0000 -1.1451,-0.4048 -1.1451 -0.4048c -0.4279,-0.4048 -0.4279,-1.0843 -0.4279 -1.0843c 0.0000,-0.7844 0.5264,-1.1913 0.5264 -1.1913c 0.5264,-0.4069 1.5457,-0.4069 1.5457 -0.4069h 1.0361 v -0.1216 c -0.0042,-0.5621 -0.2852,-0.8159 -0.2852 -0.8159c -0.2810,-0.2538 -0.8977,-0.2538 -0.8977 -0.2538c -0.3943,-0.0000 -0.7970,0.1133 -0.7970 0.1133c -0.4027,0.1133 -0.7844,0.3314 -0.7844 0.3314v -0.7718 c 0.4279,-0.1636 0.8201,-0.2454 0.8201 -0.2454c 0.3922,-0.0818 0.7613,-0.0818 0.7613 -0.0818c 0.5831,-0.0000 0.9962,0.1720 0.9962 0.1720c 0.4132,0.1720 0.6690,0.5159 0.6690 0.5159c 0.1594,0.2097 0.2265,0.5180 0.2265 0.5180c 0.0671,0.3083 0.0671,0.9249 0.0671 0.9249ZM 147.2425,193.5646 ZM 150.8415,189.4664 v -2.4287 h 0.7718 v 6.5268 h -0.7718 v -0.5914 c -0.1930,0.3482 -0.5138,0.5306 -0.5138 0.5306c -0.3209,0.1825 -0.7404,0.1825 -0.7404 0.1825c -0.8515,-0.0000 -1.3402,-0.6607 -1.3402 -0.6607c -0.4887,-0.6607 -0.4887,-1.8226 -0.4887 -1.8226c 0.0000,-1.1451 0.4908,-1.7974 0.4908 -1.7974c 0.4908,-0.6523 1.3381,-0.6523 1.3381 -0.6523c 0.4237,-0.0000 0.7466,0.1825 0.7466 0.1825c 0.3230,0.1825 0.5076,0.5306 0.5076 0.5306ZM 150.8415,189.4664 ZM 148.5722,191.2198 c 0.0000,0.8977 0.2852,1.3549 0.2852 1.3549c 0.2852,0.4572 0.8431,0.4572 0.8431 0.4572c 0.5579,-0.0000 0.8494,-0.4614 0.8494 -0.4614c 0.2915,-0.4614 0.2915,-1.3507 0.2915 -1.3507c 0.0000,-0.8935 -0.2915,-1.3528 -0.2915 -1.3528c -0.2915,-0.4593 -0.8494,-0.4593 -0.8494 -0.4593c -0.5579,-0.0000 -0.8431,0.4572 -0.8431 0.4572c -0.2852,0.4572 -0.2852,1.3549 -0.2852 1.3549ZM 152.4145,193.5646 ZM 156.0134,189.4664 v -2.4287 h 0.7718 v 6.5268 h -0.7718 v -0.5914 c -0.1930,0.3482 -0.5138,0.5306 -0.5138 0.5306c -0.3209,0.1825 -0.7404,0.1825 -0.7404 0.1825c -0.8515,-0.0000 -1.3402,-0.6607 -1.3402 -0.6607c -0.4887,-0.6607 -0.4887,-1.8226 -0.4887 -1.8226c 0.0000,-1.1451 0.4908,-1.7974 0.4908 -1.7974c 0.4908,-0.6523 1.3381,-0.6523 1.3381 -0.6523c 0.4237,-0.0000 0.7466,0.1825 0.7466 0.1825c 0.3230,0.1825 0.5076,0.5306 0.5076 0.5306ZM 156.0134,189.4664 ZM 153.7442,191.2198 c 0.0000,0.8977 0.2852,1.3549 0.2852 1.3549c 0.2852,0.4572 0.8431,0.4572 0.8431 0.4572c 0.5579,-0.0000 0.8494,-0.4614 0.8494 -0.4614c 0.2915,-0.4614 0.2915,-1.3507 0.2915 -1.3507c 0.0000,-0.8935 -0.2915,-1.3528 -0.2915 -1.3528c -0.2915,-0.4593 -0.8494,-0.4593 -0.8494 -0.4593c -0.5579,-0.0000 -0.8431,0.4572 -0.8431 0.4572c -0.2852,0.4572 -0.2852,1.3549 -0.2852 1.3549ZM 157.5864,193.5646 ZM 161.2987,187.0461 c -0.5579,0.9564 -0.8326,1.9065 -0.8326 1.9065c -0.2747,0.9501 -0.2747,1.9148 -0.2747 1.9148c 0.0000,0.9606 0.2747,1.9128 0.2747 1.9128c 0.2747,0.9522 0.8326,1.9169 0.8326 1.9169h -0.6711 c -0.6334,-0.9983 -0.9438,-1.9442 -0.9438 -1.9442c -0.3104,-0.9459 -0.3104,-1.8855 -0.3104 -1.8855c 0.0000,-0.9354 0.3104,-1.8834 0.3104 -1.8834c 0.3104,-0.9480 0.9438,-1.9379 0.9438 -1.9379h 0.6711 ZM 162.7584,193.5646 ZM 164.7844,190.4186 c 0.0000,-0.2307 0.1615,-0.3985 0.1615 -0.3985c 0.1615,-0.1678 0.3880,-0.1678 0.3880 -0.1678c 0.2349,-0.0000 0.4027,0.1678 0.4027 0.1678c 0.1678,0.1678 0.1678,0.3985 0.1678 0.3985c 0.0000,0.2349 -0.1657,0.3985 -0.1657 0.3985c -0.1657,0.1636 -0.4048,0.1636 -0.4048 0.1636c -0.2349,-0.0000 -0.3922,-0.1594 -0.3922 -0.1594c -0.1573,-0.1594 -0.1573,-0.4027 -0.1573 -0.4027ZM 164.7844,190.4186 ZM 165.3423,187.8599 c -0.5914,-0.0000 -0.8830,0.6376 -0.8830 0.6376c -0.2915,0.6376 -0.2915,1.9421 -0.2915 1.9421c 0.0000,1.3003 0.2915,1.9379 0.2915 1.9379c 0.2915,0.6376 0.8830,0.6376 0.8830 0.6376c 0.5956,-0.0000 0.8872,-0.6376 0.8872 -0.6376c 0.2915,-0.6376 0.2915,-1.9379 0.2915 -1.9379c 0.0000,-1.3045 -0.2915,-1.9421 -0.2915 -1.9421c -0.2915,-0.6376 -0.8872,-0.6376 -0.8872 -0.6376ZM 165.3423,187.8599 ZM 165.3423,187.1887 c 1.0025,-0.0000 1.5164,0.8221 1.5164 0.8221c 0.5138,0.8221 0.5138,2.4287 0.5138 2.4287c 0.0000,1.6023 -0.5138,2.4245 -0.5138 2.4245c -0.5138,0.8221 -1.5164,0.8221 -1.5164 0.8221c -1.0025,-0.0000 -1.5143,-0.8221 -1.5143 -0.8221c -0.5117,-0.8221 -0.5117,-2.4245 -0.5117 -2.4245c 0.0000,-1.6065 0.5117,-2.4287 0.5117 -2.4287c 0.5117,-0.8221 1.5143,-0.8221 1.5143 -0.8221ZM 167.9304,193.5646 ZM 170.0361,192.2936 h 1.0570 v 0.8683 l -0.8263,1.6065 h -0.6460 l 0.4153,-1.6065 v -0.8683 ZM 173.1024,193.5646 ZM 173.2995,187.3020 h 4.7777 v 0.7131 h -1.9589 v 5.5495 h -0.8515 v -5.5495 h -1.9673 v -0.7131 ZM 178.2744,193.5646 ZM 181.3574,188.0738 l -1.9757,3.3096 h 1.9757 v -3.3096 ZM 181.3574,188.0738 ZM 181.2190,187.3020 h 0.9815 v 4.0814 h 0.8347 v 0.6879 h -0.8347 v 1.4933 h -0.8431 v -1.4933 h -2.6552 v -0.8012 ZM 183.4463,193.5646 ZM 184.9061,187.0461 h 0.6711 c 0.6334,0.9899 0.9438,1.9379 0.9438 1.9379c 0.3104,0.9480 0.3104,1.8834 0.3104 1.8834c 0.0000,0.9438 -0.3104,1.8918 -0.3104 1.8918c -0.3104,0.9480 -0.9438,1.9379 -0.9438 1.9379h -0.6711 c 0.5579,-0.9732 0.8326,-1.9253 0.8326 -1.9253c 0.2747,-0.9522 0.2747,-1.9044 0.2747 -1.9044c 0.0000,-0.9564 -0.2747,-1.9086 -0.2747 -1.9086c -0.2747,-0.9522 -0.8326,-1.9128 -0.8326 -1.9128Z"/></g><g stroke-linejoin="miter" stroke-opacity="1.0" fill-opacity="1.0" stroke="rgb(0,0,0)" stroke-width="2.0e-4" fill="rgb(0,0,0)" stroke-linecap="butt" stroke-miterlimit="10.0"><path d="M 127.6837,193.1724 ZM 130.6284,186.6078 v 8.5906 h -0.7215 v -8.5906 h 0.7215 Z"/></g><g stroke-linejoin="miter" stroke-opacity="1.0" fill-opacity="1.0" stroke="rgb(0,0,0)" stroke-width="1.1e-4" fill="rgb(0,0,0)" stroke-linecap="butt" stroke-miterlimit="10.0"><path d="M 38.7683,194.2377 ZM 41.1030,194.6760 v 0.3322 h -0.1477 c -0.5745,-0.0000 -0.7694,-0.1707 -0.7694 -0.1707c -0.1949,-0.1707 -0.1949,-0.6806 -0.1949 -0.6806v -0.5514 c 0.0000,-0.3484 -0.1234,-0.4822 -0.1234 -0.4822c -0.1234,-0.1338 -0.4464,-0.1338 -0.4464 -0.1338h -0.1430 v -0.3299 h 0.1430 c 0.3253,-0.0000 0.4476,-0.1315 0.4476 -0.1315c 0.1223,-0.1315 0.1223,-0.4776 0.1223 -0.4776v -0.5537 c 0.0000,-0.5099 0.1949,-0.6794 0.1949 -0.6794c 0.1949,-0.1696 0.7694,-0.1696 0.7694 -0.1696h 0.1477 v 0.3299 h -0.1615 c -0.3230,-0.0000 -0.4210,0.1004 -0.4210 0.1004c -0.0980,0.1004 -0.0980,0.4280 -0.0980 0.4280v 0.5721 c 0.0000,0.3622 -0.1050,0.5260 -0.1050 0.5260c -0.1050,0.1638 -0.3587,0.2215 -0.3587 0.2215c 0.2561,0.0623 0.3599,0.2261 0.3599 0.2261c 0.1038,0.1638 0.1038,0.5237 0.1038 0.5237v 0.5721 c 0.0000,0.3299 0.0980,0.4291 0.0980 0.4291c 0.0980,0.0992 0.4210,0.0992 0.4210 0.0992h 0.1615 ZM 41.6129,194.2377 ZM 41.7213,190.7933 h 2.6277 v 0.3922 h -1.0774 v 3.0522 h -0.4683 v -3.0522 h -1.0820 v -0.3922 ZM 44.4574,194.2377 ZM 45.5718,192.5074 c 0.0000,-0.1269 0.0888,-0.2192 0.0888 -0.2192c 0.0888,-0.0923 0.2134,-0.0923 0.2134 -0.0923c 0.1292,-0.0000 0.2215,0.0923 0.2215 0.0923c 0.0923,0.0923 0.0923,0.2192 0.0923 0.2192c 0.0000,0.1292 -0.0911,0.2192 -0.0911 0.2192c -0.0911,0.0900 -0.2226,0.0900 -0.2226 0.0900c -0.1292,-0.0000 -0.2157,-0.0877 -0.2157 -0.0877c -0.0865,-0.0877 -0.0865,-0.2215 -0.0865 -0.2215ZM 45.5718,192.5074 ZM 45.8786,191.1001 c -0.3253,-0.0000 -0.4856,0.3507 -0.4856 0.3507c -0.1603,0.3507 -0.1603,1.0682 -0.1603 1.0682c 0.0000,0.7152 0.1603,1.0659 0.1603 1.0659c 0.1603,0.3507 0.4856,0.3507 0.4856 0.3507c 0.3276,-0.0000 0.4879,-0.3507 0.4879 -0.3507c 0.1603,-0.3507 0.1603,-1.0659 0.1603 -1.0659c 0.0000,-0.7175 -0.1603,-1.0682 -0.1603 -1.0682c -0.1603,-0.3507 -0.4879,-0.3507 -0.4879 -0.3507ZM 45.8786,191.1001 ZM 45.8786,190.7310 c 0.5514,-0.0000 0.8340,0.4522 0.8340 0.4522c 0.2826,0.4522 0.2826,1.3358 0.2826 1.3358c 0.0000,0.8813 -0.2826,1.3335 -0.2826 1.3335c -0.2826,0.4522 -0.8340,0.4522 -0.8340 0.4522c -0.5514,-0.0000 -0.8328,-0.4522 -0.8328 -0.4522c -0.2815,-0.4522 -0.2815,-1.3335 -0.2815 -1.3335c 0.0000,-0.8836 0.2815,-1.3358 0.2815 -1.3358c 0.2815,-0.4522 0.8328,-0.4522 0.8328 -0.4522ZM 50.1466,194.2377 ZM 50.9679,192.7543 h 1.2020 v 0.3784 h -1.2020 v -0.3784 ZM 52.9912,194.2377 ZM 53.1942,192.0206 v -0.4199 l 2.4385,0.9643 v 0.3830 l -2.4385,0.9643 v -0.4222 l 1.9610,-0.7313 ZM 58.6804,194.2377 ZM 59.7947,192.5074 c 0.0000,-0.1269 0.0888,-0.2192 0.0888 -0.2192c 0.0888,-0.0923 0.2134,-0.0923 0.2134 -0.0923c 0.1292,-0.0000 0.2215,0.0923 0.2215 0.0923c 0.0923,0.0923 0.0923,0.2192 0.0923 0.2192c 0.0000,0.1292 -0.0911,0.2192 -0.0911 0.2192c -0.0911,0.0900 -0.2226,0.0900 -0.2226 0.0900c -0.1292,-0.0000 -0.2157,-0.0877 -0.2157 -0.0877c -0.0865,-0.0877 -0.0865,-0.2215 -0.0865 -0.2215ZM 59.7947,192.5074 ZM 60.1015,191.1001 c -0.3253,-0.0000 -0.4856,0.3507 -0.4856 0.3507c -0.1603,0.3507 -0.1603,1.0682 -0.1603 1.0682c 0.0000,0.7152 0.1603,1.0659 0.1603 1.0659c 0.1603,0.3507 0.4856,0.3507 0.4856 0.3507c 0.3276,-0.0000 0.4879,-0.3507 0.4879 -0.3507c 0.1603,-0.3507 0.1603,-1.0659 0.1603 -1.0659c 0.0000,-0.7175 -0.1603,-1.0682 -0.1603 -1.0682c -0.1603,-0.3507 -0.4879,-0.3507 -0.4879 -0.3507ZM 60.1015,191.1001 ZM 60.1015,190.7310 c 0.5514,-0.0000 0.8340,0.4522 0.8340 0.4522c 0.2826,0.4522 0.2826,1.3358 0.2826 1.3358c 0.0000,0.8813 -0.2826,1.3335 -0.2826 1.3335c -0.2826,0.4522 -0.8340,0.4522 -0.8340 0.4522c -0.5514,-0.0000 -0.8328,-0.4522 -0.8328 -0.4522c -0.2815,-0.4522 -0.2815,-1.3335 -0.2815 -1.3335c 0.0000,-0.8836 0.2815,-1.3358 0.2815 -1.3358c 0.2815,-0.4522 0.8328,-0.4522 0.8328 -0.4522ZM 61.5250,194.2377 ZM 62.6831,193.5387 h 0.5814 v 0.4776 l -0.4545,0.8836 h -0.3553 l 0.2284,-0.8836 v -0.4776 ZM 67.2142,194.2377 ZM 67.3226,190.7933 h 2.6277 v 0.3922 h -1.0774 v 3.0522 h -0.4683 v -3.0522 h -1.0820 v -0.3922 ZM 70.0587,194.2377 ZM 70.6817,193.8455 h 0.7244 v -2.6323 l -0.7798,0.1753 v -0.4245 l 0.7752,-0.1707 h 0.4660 v 3.0522 h 0.7152 v 0.3922 h -1.9010 v -0.3922 ZM 75.7479,194.2377 ZM 76.5692,192.7543 h 1.2020 v 0.3784 h -1.2020 v -0.3784 ZM 78.5925,194.2377 ZM 78.7955,192.0206 v -0.4199 l 2.4385,0.9643 v 0.3830 l -2.4385,0.9643 v -0.4222 l 1.9610,-0.7313 ZM 84.2817,194.2377 ZM 84.3901,190.7933 h 2.6277 v 0.3922 h -1.0774 v 3.0522 h -0.4683 v -3.0522 h -1.0820 v -0.3922 ZM 87.1263,194.2377 ZM 88.8220,191.2178 l -1.0866,1.8203 h 1.0866 v -1.8203 ZM 88.8220,191.2178 ZM 88.7458,190.7933 h 0.5398 v 2.2448 h 0.4591 v 0.3784 h -0.4591 v 0.8213 h -0.4637 v -0.8213 h -1.4604 v -0.4406 ZM 89.9709,194.2377 ZM 91.1290,193.5387 h 0.5814 v 0.4776 l -0.4545,0.8836 h -0.3553 l 0.2284,-0.8836 v -0.4776 ZM 95.6600,194.2377 ZM 95.8585,190.7933 h 0.5006 l 0.7567,1.2989 l 0.7706,-1.2989 h 0.5006 l -1.0312,1.6195 l 1.1051,1.8249 h -0.5006 l -0.8444,-1.4834 l -0.9113,1.4834 h -0.5029 l 1.1535,-1.8249 ZM 101.3492,194.2377 ZM 102.1705,192.7543 h 1.2020 v 0.3784 h -1.2020 v -0.3784 ZM 104.1938,194.2377 ZM 104.3968,192.0206 v -0.4199 l 2.4385,0.9643 v 0.3830 l -2.4385,0.9643 v -0.4222 l 1.9610,-0.7313 ZM 109.8830,194.2377 ZM 109.9914,190.7933 h 2.6277 v 0.3922 h -1.0774 v 3.0522 h -0.4683 v -3.0522 h -1.0820 v -0.3922 ZM 112.7276,194.2377 ZM 114.4233,191.2178 l -1.0866,1.8203 h 1.0866 v -1.8203 ZM 114.4233,191.2178 ZM 114.3471,190.7933 h 0.5398 v 2.2448 h 0.4591 v 0.3784 h -0.4591 v 0.8213 h -0.4637 v -0.8213 h -1.4604 v -0.4406 ZM 115.5722,194.2377 ZM 116.0820,194.6760 h 0.1569 c 0.3253,-0.0000 0.4245,-0.1015 0.4245 -0.1015c 0.0992,-0.1015 0.0992,-0.4268 0.0992 -0.4268v -0.5721 c 0.0000,-0.3599 0.1038,-0.5237 0.1038 -0.5237c 0.1038,-0.1638 0.3599,-0.2261 0.3599 -0.2261c -0.2538,-0.0577 -0.3587,-0.2215 -0.3587 -0.2215c -0.1050,-0.1638 -0.1050,-0.5260 -0.1050 -0.5260v -0.5721 c 0.0000,-0.3253 -0.0992,-0.4268 -0.0992 -0.4268c -0.0992,-0.1015 -0.4245,-0.1015 -0.4245 -0.1015h -0.1569 v -0.3299 h 0.1430 c 0.5745,-0.0000 0.7682,0.1696 0.7682 0.1696c 0.1938,0.1696 0.1938,0.6794 0.1938 0.6794v 0.5537 c 0.0000,0.3461 0.1234,0.4776 0.1234 0.4776c 0.1234,0.1315 0.4487,0.1315 0.4487 0.1315h 0.1477 v 0.3299 h -0.1477 c -0.3253,-0.0000 -0.4487,0.1338 -0.4487 0.1338c -0.1234,0.1338 -0.1234,0.4822 -0.1234 0.4822v 0.5514 c 0.0000,0.5099 -0.1938,0.6806 -0.1938 0.6806c -0.1938,0.1707 -0.7682,0.1707 -0.7682 0.1707h -0.1430 v -0.3322 Z"/></g><g stroke-linejoin="miter" stroke-opacity="1.0" fill-opacity="1.0" stroke="rgb(0,0,0)" stroke-width="2.0e-4" fill="rgb(0,0,0)" stroke-linecap="butt" stroke-miterlimit="10.0"><path d="M 27.3452,194.0344 ZM 27.5424,187.7718 h 4.7777 v 0.7131 h -1.9589 v 5.5495 h -0.8515 v -5.5495 h -1.9673 v -0.7131 ZM 32.5172,194.0344 ZM 35.6003,188.5436 l -1.9757,3.3096 h 1.9757 v -3.3096 ZM 35.6003,188.5436 ZM 35.4619,187.7718 h 0.9815 v 4.0814 h 0.8347 v 0.6879 h -0.8347 v 1.4933 h -0.8431 v -1.4933 h -2.6552 v -0.8012 Z"/></g><g stroke-linejoin="miter" stroke-opacity="1.0" fill-opacity="1.0" stroke="rgb(0,0,0)" stroke-width="2.0" fill="rgb(255,255,255)" stroke-linecap="butt" stroke-miterlimit="10.0"><path d="M 314.8822,138.8762 l -0.0000,-24.0537 h -142.9346 l -0.0000,24.0537 Z"/></g><g stroke-linejoin="miter" stroke-opacity="1.0" fill-opacity="1.0" stroke="rgb(0,0,0)" stroke-width="1.1e-4" fill="rgb(0,0,0)" stroke-linecap="butt" stroke-miterlimit="10.0"></g><g stroke-linejoin="miter" stroke-opacity="1.0" fill-opacity="1.0" stroke="rgb(0,0,0)" stroke-width="2.0e-4" fill="rgb(0,0,0)" stroke-linecap="butt" stroke-miterlimit="10.0"><path d="M 255.2178,129.5109 ZM 258.1624,127.1493 h -0.2559 c -0.6753,-0.0000 -1.0172,0.2370 -1.0172 0.2370c -0.3419,0.2370 -0.3419,0.7068 -0.3419 0.7068c 0.0000,0.4237 0.2559,0.6586 0.2559 0.6586c 0.2559,0.2349 0.7089,0.2349 0.7089 0.2349c 0.6376,-0.0000 1.0025,-0.4425 1.0025 -0.4425c 0.3649,-0.4425 0.3691,-1.2227 0.3691 -1.2227v -0.1720 h -0.7215 ZM 258.1624,127.1493 ZM 259.6599,126.8305 v 2.6804 h -0.7760 v -0.6963 c -0.2475,0.4195 -0.6229,0.6187 -0.6229 0.6187c -0.3754,0.1992 -0.9123,0.1992 -0.9123 0.1992c -0.7173,-0.0000 -1.1451,-0.4048 -1.1451 -0.4048c -0.4279,-0.4048 -0.4279,-1.0843 -0.4279 -1.0843c 0.0000,-0.7844 0.5264,-1.1913 0.5264 -1.1913c 0.5264,-0.4069 1.5457,-0.4069 1.5457 -0.4069h 1.0361 v -0.1216 c -0.0042,-0.5621 -0.2852,-0.8159 -0.2852 -0.8159c -0.2810,-0.2538 -0.8977,-0.2538 -0.8977 -0.2538c -0.3943,-0.0000 -0.7970,0.1133 -0.7970 0.1133c -0.4027,0.1133 -0.7844,0.3314 -0.7844 0.3314v -0.7718 c 0.4279,-0.1636 0.8201,-0.2454 0.8201 -0.2454c 0.3922,-0.0818 0.7613,-0.0818 0.7613 -0.0818c 0.5831,-0.0000 0.9962,0.1720 0.9962 0.1720c 0.4132,0.1720 0.6690,0.5159 0.6690 0.5159c 0.1594,0.2097 0.2265,0.5180 0.2265 0.5180c 0.0671,0.3083 0.0671,0.9249 0.0671 0.9249ZM 260.3898,129.5109 ZM 263.9888,125.4127 v -2.4287 h 0.7718 v 6.5268 h -0.7718 v -0.5914 c -0.1930,0.3482 -0.5138,0.5306 -0.5138 0.5306c -0.3209,0.1825 -0.7404,0.1825 -0.7404 0.1825c -0.8515,-0.0000 -1.3402,-0.6607 -1.3402 -0.6607c -0.4887,-0.6607 -0.4887,-1.8226 -0.4887 -1.8226c 0.0000,-1.1451 0.4908,-1.7974 0.4908 -1.7974c 0.4908,-0.6523 1.3381,-0.6523 1.3381 -0.6523c 0.4237,-0.0000 0.7466,0.1825 0.7466 0.1825c 0.3230,0.1825 0.5076,0.5306 0.5076 0.5306ZM 263.9888,125.4127 ZM 261.7195,127.1661 c 0.0000,0.8977 0.2852,1.3549 0.2852 1.3549c 0.2852,0.4572 0.8431,0.4572 0.8431 0.4572c 0.5579,-0.0000 0.8494,-0.4614 0.8494 -0.4614c 0.2915,-0.4614 0.2915,-1.3507 0.2915 -1.3507c 0.0000,-0.8935 -0.2915,-1.3528 -0.2915 -1.3528c -0.2915,-0.4593 -0.8494,-0.4593 -0.8494 -0.4593c -0.5579,-0.0000 -0.8431,0.4572 -0.8431 0.4572c -0.2852,0.4572 -0.2852,1.3549 -0.2852 1.3549ZM 265.5618,129.5109 ZM 269.1608,125.4127 v -2.4287 h 0.7718 v 6.5268 h -0.7718 v -0.5914 c -0.1930,0.3482 -0.5138,0.5306 -0.5138 0.5306c -0.3209,0.1825 -0.7404,0.1825 -0.7404 0.1825c -0.8515,-0.0000 -1.3402,-0.6607 -1.3402 -0.6607c -0.4887,-0.6607 -0.4887,-1.8226 -0.4887 -1.8226c 0.0000,-1.1451 0.4908,-1.7974 0.4908 -1.7974c 0.4908,-0.6523 1.3381,-0.6523 1.3381 -0.6523c 0.4237,-0.0000 0.7466,0.1825 0.7466 0.1825c 0.3230,0.1825 0.5076,0.5306 0.5076 0.5306ZM 269.1608,125.4127 ZM 266.8915,127.1661 c 0.0000,0.8977 0.2852,1.3549 0.2852 1.3549c 0.2852,0.4572 0.8431,0.4572 0.8431 0.4572c 0.5579,-0.0000 0.8494,-0.4614 0.8494 -0.4614c 0.2915,-0.4614 0.2915,-1.3507 0.2915 -1.3507c 0.0000,-0.8935 -0.2915,-1.3528 -0.2915 -1.3528c -0.2915,-0.4593 -0.8494,-0.4593 -0.8494 -0.4593c -0.5579,-0.0000 -0.8431,0.4572 -0.8431 0.4572c -0.2852,0.4572 -0.2852,1.3549 -0.2852 1.3549ZM 270.7338,129.5109 ZM 274.4460,122.9924 c -0.5579,0.9564 -0.8326,1.9065 -0.8326 1.9065c -0.2747,0.9501 -0.2747,1.9148 -0.2747 1.9148c 0.0000,0.9606 0.2747,1.9128 0.2747 1.9128c 0.2747,0.9522 0.8326,1.9169 0.8326 1.9169h -0.6711 c -0.6334,-0.9983 -0.9438,-1.9442 -0.9438 -1.9442c -0.3104,-0.9459 -0.3104,-1.8855 -0.3104 -1.8855c 0.0000,-0.9354 0.3104,-1.8834 0.3104 -1.8834c 0.3104,-0.9480 0.9438,-1.9379 0.9438 -1.9379h 0.6711 ZM 275.9057,129.5109 ZM 276.1029,123.2483 h 4.7777 v 0.7131 h -1.9589 v 5.5495 h -0.8515 v -5.5495 h -1.9673 v -0.7131 ZM 281.0777,129.5109 ZM 283.1037,126.3649 c 0.0000,-0.2307 0.1615,-0.3985 0.1615 -0.3985c 0.1615,-0.1678 0.3880,-0.1678 0.3880 -0.1678c 0.2349,-0.0000 0.4027,0.1678 0.4027 0.1678c 0.1678,0.1678 0.1678,0.3985 0.1678 0.3985c 0.0000,0.2349 -0.1657,0.3985 -0.1657 0.3985c -0.1657,0.1636 -0.4048,0.1636 -0.4048 0.1636c -0.2349,-0.0000 -0.3922,-0.1594 -0.3922 -0.1594c -0.1573,-0.1594 -0.1573,-0.4027 -0.1573 -0.4027ZM 283.1037,126.3649 ZM 283.6616,123.8062 c -0.5914,-0.0000 -0.8830,0.6376 -0.8830 0.6376c -0.2915,0.6376 -0.2915,1.9421 -0.2915 1.9421c 0.0000,1.3003 0.2915,1.9379 0.2915 1.9379c 0.2915,0.6376 0.8830,0.6376 0.8830 0.6376c 0.5956,-0.0000 0.8872,-0.6376 0.8872 -0.6376c 0.2915,-0.6376 0.2915,-1.9379 0.2915 -1.9379c 0.0000,-1.3045 -0.2915,-1.9421 -0.2915 -1.9421c -0.2915,-0.6376 -0.8872,-0.6376 -0.8872 -0.6376ZM 283.6616,123.8062 ZM 283.6616,123.1350 c 1.0025,-0.0000 1.5164,0.8221 1.5164 0.8221c 0.5138,0.8221 0.5138,2.4287 0.5138 2.4287c 0.0000,1.6023 -0.5138,2.4245 -0.5138 2.4245c -0.5138,0.8221 -1.5164,0.8221 -1.5164 0.8221c -1.0025,-0.0000 -1.5143,-0.8221 -1.5143 -0.8221c -0.5117,-0.8221 -0.5117,-2.4245 -0.5117 -2.4245c 0.0000,-1.6065 0.5117,-2.4287 0.5117 -2.4287c 0.5117,-0.8221 1.5143,-0.8221 1.5143 -0.8221ZM 286.2497,129.5109 ZM 288.3554,128.2399 h 1.0570 v 0.8683 l -0.8263,1.6065 h -0.6460 l 0.4153,-1.6065 v -0.8683 ZM 291.4217,129.5109 ZM 291.6188,123.2483 h 4.7777 v 0.7131 h -1.9589 v 5.5495 h -0.8515 v -5.5495 h -1.9673 v -0.7131 ZM 296.5937,129.5109 ZM 297.7262,128.7978 h 1.3171 v -4.7861 l -1.4178,0.3188 v -0.7718 l 1.4094,-0.3104 h 0.8473 v 5.5495 h 1.3003 v 0.7131 h -3.4564 v -0.7131 ZM 301.7656,129.5109 ZM 303.2254,122.9924 h 0.6711 c 0.6334,0.9899 0.9438,1.9379 0.9438 1.9379c 0.3104,0.9480 0.3104,1.8834 0.3104 1.8834c 0.0000,0.9438 -0.3104,1.8918 -0.3104 1.8918c -0.3104,0.9480 -0.9438,1.9379 -0.9438 1.9379h -0.6711 c 0.5579,-0.9732 0.8326,-1.9253 0.8326 -1.9253c 0.2747,-0.9522 0.2747,-1.9044 0.2747 -1.9044c 0.0000,-0.9564 -0.2747,-1.9086 -0.2747 -1.9086c -0.2747,-0.9522 -0.8326,-1.9128 -0.8326 -1.9128Z"/></g><g stroke-linejoin="miter" stroke-opacity="1.0" fill-opacity="1.0" stroke="rgb(0,0,0)" stroke-width="2.0e-4" fill="rgb(0,0,0)" stroke-linecap="butt" stroke-miterlimit="10.0"><path d="M 240.8311,129.1187 ZM 243.7757,122.5541 v 8.5906 h -0.7215 v -8.5906 h 0.7215 Z"/></g><g stroke-linejoin="miter" stroke-opacity="1.0" fill-opacity="1.0" stroke="rgb(0,0,0)" stroke-width="1.1e-4" fill="rgb(0,0,0)" stroke-linecap="butt" stroke-miterlimit="10.0"></g><g stroke-linejoin="miter" stroke-opacity="1.0" fill-opacity="1.0" stroke="rgb(0,0,0)" stroke-width="2.0e-4" fill="rgb(0,0,0)" stroke-linecap="butt" stroke-miterlimit="10.0"><path d="M 179.1213,129.5109 ZM 182.0660,127.1493 h -0.2559 c -0.6753,-0.0000 -1.0172,0.2370 -1.0172 0.2370c -0.3419,0.2370 -0.3419,0.7068 -0.3419 0.7068c 0.0000,0.4237 0.2559,0.6586 0.2559 0.6586c 0.2559,0.2349 0.7089,0.2349 0.7089 0.2349c 0.6376,-0.0000 1.0025,-0.4425 1.0025 -0.4425c 0.3649,-0.4425 0.3691,-1.2227 0.3691 -1.2227v -0.1720 h -0.7215 ZM 182.0660,127.1493 ZM 183.5635,126.8305 v 2.6804 h -0.7760 v -0.6963 c -0.2475,0.4195 -0.6229,0.6187 -0.6229 0.6187c -0.3754,0.1992 -0.9123,0.1992 -0.9123 0.1992c -0.7173,-0.0000 -1.1451,-0.4048 -1.1451 -0.4048c -0.4279,-0.4048 -0.4279,-1.0843 -0.4279 -1.0843c 0.0000,-0.7844 0.5264,-1.1913 0.5264 -1.1913c 0.5264,-0.4069 1.5457,-0.4069 1.5457 -0.4069h 1.0361 v -0.1216 c -0.0042,-0.5621 -0.2852,-0.8159 -0.2852 -0.8159c -0.2810,-0.2538 -0.8977,-0.2538 -0.8977 -0.2538c -0.3943,-0.0000 -0.7970,0.1133 -0.7970 0.1133c -0.4027,0.1133 -0.7844,0.3314 -0.7844 0.3314v -0.7718 c 0.4279,-0.1636 0.8201,-0.2454 0.8201 -0.2454c 0.3922,-0.0818 0.7613,-0.0818 0.7613 -0.0818c 0.5831,-0.0000 0.9962,0.1720 0.9962 0.1720c 0.4132,0.1720 0.6690,0.5159 0.6690 0.5159c 0.1594,0.2097 0.2265,0.5180 0.2265 0.5180c 0.0671,0.3083 0.0671,0.9249 0.0671 0.9249ZM 184.2933,129.5109 ZM 187.8923,125.4127 v -2.4287 h 0.7718 v 6.5268 h -0.7718 v -0.5914 c -0.1930,0.3482 -0.5138,0.5306 -0.5138 0.5306c -0.3209,0.1825 -0.7404,0.1825 -0.7404 0.1825c -0.8515,-0.0000 -1.3402,-0.6607 -1.3402 -0.6607c -0.4887,-0.6607 -0.4887,-1.8226 -0.4887 -1.8226c 0.0000,-1.1451 0.4908,-1.7974 0.4908 -1.7974c 0.4908,-0.6523 1.3381,-0.6523 1.3381 -0.6523c 0.4237,-0.0000 0.7466,0.1825 0.7466 0.1825c 0.3230,0.1825 0.5076,0.5306 0.5076 0.5306ZM 187.8923,125.4127 ZM 185.6230,127.1661 c 0.0000,0.8977 0.2852,1.3549 0.2852 1.3549c 0.2852,0.4572 0.8431,0.4572 0.8431 0.4572c 0.5579,-0.0000 0.8494,-0.4614 0.8494 -0.4614c 0.2915,-0.4614 0.2915,-1.3507 0.2915 -1.3507c 0.0000,-0.8935 -0.2915,-1.3528 -0.2915 -1.3528c -0.2915,-0.4593 -0.8494,-0.4593 -0.8494 -0.4593c -0.5579,-0.0000 -0.8431,0.4572 -0.8431 0.4572c -0.2852,0.4572 -0.2852,1.3549 -0.2852 1.3549ZM 189.4653,129.5109 ZM 193.0643,125.4127 v -2.4287 h 0.7718 v 6.5268 h -0.7718 v -0.5914 c -0.1930,0.3482 -0.5138,0.5306 -0.5138 0.5306c -0.3209,0.1825 -0.7404,0.1825 -0.7404 0.1825c -0.8515,-0.0000 -1.3402,-0.6607 -1.3402 -0.6607c -0.4887,-0.6607 -0.4887,-1.8226 -0.4887 -1.8226c 0.0000,-1.1451 0.4908,-1.7974 0.4908 -1.7974c 0.4908,-0.6523 1.3381,-0.6523 1.3381 -0.6523c 0.4237,-0.0000 0.7466,0.1825 0.7466 0.1825c 0.3230,0.1825 0.5076,0.5306 0.5076 0.5306ZM 193.0643,125.4127 ZM 190.7950,127.1661 c 0.0000,0.8977 0.2852,1.3549 0.2852 1.3549c 0.2852,0.4572 0.8431,0.4572 0.8431 0.4572c 0.5579,-0.0000 0.8494,-0.4614 0.8494 -0.4614c 0.2915,-0.4614 0.2915,-1.3507 0.2915 -1.3507c 0.0000,-0.8935 -0.2915,-1.3528 -0.2915 -1.3528c -0.2915,-0.4593 -0.8494,-0.4593 -0.8494 -0.4593c -0.5579,-0.0000 -0.8431,0.4572 -0.8431 0.4572c -0.2852,0.4572 -0.2852,1.3549 -0.2852 1.3549ZM 194.6373,129.5109 ZM 198.3495,122.9924 c -0.5579,0.9564 -0.8326,1.9065 -0.8326 1.9065c -0.2747,0.9501 -0.2747,1.9148 -0.2747 1.9148c 0.0000,0.9606 0.2747,1.9128 0.2747 1.9128c 0.2747,0.9522 0.8326,1.9169 0.8326 1.9169h -0.6711 c -0.6334,-0.9983 -0.9438,-1.9442 -0.9438 -1.9442c -0.3104,-0.9459 -0.3104,-1.8855 -0.3104 -1.8855c 0.0000,-0.9354 0.3104,-1.8834 0.3104 -1.8834c 0.3104,-0.9480 0.9438,-1.9379 0.9438 -1.9379h 0.6711 ZM 199.8093,129.5109 ZM 200.0064,123.2483 h 4.7777 v 0.7131 h -1.9589 v 5.5495 h -0.8515 v -5.5495 h -1.9673 v -0.7131 ZM 204.9812,129.5109 ZM 207.0072,126.3649 c 0.0000,-0.2307 0.1615,-0.3985 0.1615 -0.3985c 0.1615,-0.1678 0.3880,-0.1678 0.3880 -0.1678c 0.2349,-0.0000 0.4027,0.1678 0.4027 0.1678c 0.1678,0.1678 0.1678,0.3985 0.1678 0.3985c 0.0000,0.2349 -0.1657,0.3985 -0.1657 0.3985c -0.1657,0.1636 -0.4048,0.1636 -0.4048 0.1636c -0.2349,-0.0000 -0.3922,-0.1594 -0.3922 -0.1594c -0.1573,-0.1594 -0.1573,-0.4027 -0.1573 -0.4027ZM 207.0072,126.3649 ZM 207.5651,123.8062 c -0.5914,-0.0000 -0.8830,0.6376 -0.8830 0.6376c -0.2915,0.6376 -0.2915,1.9421 -0.2915 1.9421c 0.0000,1.3003 0.2915,1.9379 0.2915 1.9379c 0.2915,0.6376 0.8830,0.6376 0.8830 0.6376c 0.5956,-0.0000 0.8872,-0.6376 0.8872 -0.6376c 0.2915,-0.6376 0.2915,-1.9379 0.2915 -1.9379c 0.0000,-1.3045 -0.2915,-1.9421 -0.2915 -1.9421c -0.2915,-0.6376 -0.8872,-0.6376 -0.8872 -0.6376ZM 207.5651,123.8062 ZM 207.5651,123.1350 c 1.0025,-0.0000 1.5164,0.8221 1.5164 0.8221c 0.5138,0.8221 0.5138,2.4287 0.5138 2.4287c 0.0000,1.6023 -0.5138,2.4245 -0.5138 2.4245c -0.5138,0.8221 -1.5164,0.8221 -1.5164 0.8221c -1.0025,-0.0000 -1.5143,-0.8221 -1.5143 -0.8221c -0.5117,-0.8221 -0.5117,-2.4245 -0.5117 -2.4245c 0.0000,-1.6065 0.5117,-2.4287 0.5117 -2.4287c 0.5117,-0.8221 1.5143,-0.8221 1.5143 -0.8221ZM 210.1532,129.5109 ZM 212.2589,128.2399 h 1.0570 v 0.8683 l -0.8263,1.6065 h -0.6460 l 0.4153,-1.6065 v -0.8683 ZM 215.3252,129.5109 ZM 215.5223,123.2483 h 4.7777 v 0.7131 h -1.9589 v 5.5495 h -0.8515 v -5.5495 h -1.9673 v -0.7131 ZM 220.4972,129.5109 ZM 221.6297,128.7978 h 1.3171 v -4.7861 l -1.4178,0.3188 v -0.7718 l 1.4094,-0.3104 h 0.8473 v 5.5495 h 1.3003 v 0.7131 h -3.4564 v -0.7131 ZM 225.6692,129.5109 ZM 227.1289,122.9924 h 0.6711 c 0.6334,0.9899 0.9438,1.9379 0.9438 1.9379c 0.3104,0.9480 0.3104,1.8834 0.3104 1.8834c 0.0000,0.9438 -0.3104,1.8918 -0.3104 1.8918c -0.3104,0.9480 -0.9438,1.9379 -0.9438 1.9379h -0.6711 c 0.5579,-0.9732 0.8326,-1.9253 0.8326 -1.9253c 0.2747,-0.9522 0.2747,-1.9044 0.2747 -1.9044c 0.0000,-0.9564 -0.2747,-1.9086 -0.2747 -1.9086c -0.2747,-0.9522 -0.8326,-1.9128 -0.8326 -1.9128Z"/></g><g stroke-linejoin="miter" stroke-opacity="1.0" fill-opacity="1.0" stroke="rgb(0,0,0)" stroke-width="2.0" fill="rgb(255,255,255)" stroke-linecap="butt" stroke-miterlimit="10.0"><path d="M 281.0601,74.8225 l -0.0000,-21.6460 h -65.2903 l -0.0000,21.6460 Z"/></g><g stroke-linejoin="miter" stroke-opacity="1.0" fill-opacity="1.0" stroke="rgb(0,0,0)" stroke-width="1.1e-4" fill="rgb(0,0,0)" stroke-linecap="butt" stroke-miterlimit="10.0"></g><g stroke-linejoin="miter" stroke-opacity="1.0" fill-opacity="1.0" stroke="rgb(0,0,0)" stroke-width="2.0e-4" fill="rgb(0,0,0)" stroke-linecap="butt" stroke-miterlimit="10.0"><path d="M 222.1696,66.6611 ZM 225.1142,64.2995 h -0.2559 c -0.6753,-0.0000 -1.0172,0.2370 -1.0172 0.2370c -0.3419,0.2370 -0.3419,0.7068 -0.3419 0.7068c 0.0000,0.4237 0.2559,0.6586 0.2559 0.6586c 0.2559,0.2349 0.7089,0.2349 0.7089 0.2349c 0.6376,-0.0000 1.0025,-0.4425 1.0025 -0.4425c 0.3649,-0.4425 0.3691,-1.2227 0.3691 -1.2227v -0.1720 h -0.7215 ZM 225.1142,64.2995 ZM 226.6117,63.9807 v 2.6804 h -0.7760 v -0.6963 c -0.2475,0.4195 -0.6229,0.6187 -0.6229 0.6187c -0.3754,0.1992 -0.9123,0.1992 -0.9123 0.1992c -0.7173,-0.0000 -1.1451,-0.4048 -1.1451 -0.4048c -0.4279,-0.4048 -0.4279,-1.0843 -0.4279 -1.0843c 0.0000,-0.7844 0.5264,-1.1913 0.5264 -1.1913c 0.5264,-0.4069 1.5457,-0.4069 1.5457 -0.4069h 1.0361 v -0.1216 c -0.0042,-0.5621 -0.2852,-0.8159 -0.2852 -0.8159c -0.2810,-0.2538 -0.8977,-0.2538 -0.8977 -0.2538c -0.3943,-0.0000 -0.7970,0.1133 -0.7970 0.1133c -0.4027,0.1133 -0.7844,0.3314 -0.7844 0.3314v -0.7718 c 0.4279,-0.1636 0.8201,-0.2454 0.8201 -0.2454c 0.3922,-0.0818 0.7613,-0.0818 0.7613 -0.0818c 0.5831,-0.0000 0.9962,0.1720 0.9962 0.1720c 0.4132,0.1720 0.6690,0.5159 0.6690 0.5159c 0.1594,0.2097 0.2265,0.5180 0.2265 0.5180c 0.0671,0.3083 0.0671,0.9249 0.0671 0.9249ZM 227.3416,66.6611 ZM 230.9406,62.5629 v -2.4287 h 0.7718 v 6.5268 h -0.7718 v -0.5914 c -0.1930,0.3482 -0.5138,0.5306 -0.5138 0.5306c -0.3209,0.1825 -0.7404,0.1825 -0.7404 0.1825c -0.8515,-0.0000 -1.3402,-0.6607 -1.3402 -0.6607c -0.4887,-0.6607 -0.4887,-1.8226 -0.4887 -1.8226c 0.0000,-1.1451 0.4908,-1.7974 0.4908 -1.7974c 0.4908,-0.6523 1.3381,-0.6523 1.3381 -0.6523c 0.4237,-0.0000 0.7466,0.1825 0.7466 0.1825c 0.3230,0.1825 0.5076,0.5306 0.5076 0.5306ZM 230.9406,62.5629 ZM 228.6713,64.3163 c 0.0000,0.8977 0.2852,1.3549 0.2852 1.3549c 0.2852,0.4572 0.8431,0.4572 0.8431 0.4572c 0.5579,-0.0000 0.8494,-0.4614 0.8494 -0.4614c 0.2915,-0.4614 0.2915,-1.3507 0.2915 -1.3507c 0.0000,-0.8935 -0.2915,-1.3528 -0.2915 -1.3528c -0.2915,-0.4593 -0.8494,-0.4593 -0.8494 -0.4593c -0.5579,-0.0000 -0.8431,0.4572 -0.8431 0.4572c -0.2852,0.4572 -0.2852,1.3549 -0.2852 1.3549ZM 232.5135,66.6611 ZM 236.1125,62.5629 v -2.4287 h 0.7718 v 6.5268 h -0.7718 v -0.5914 c -0.1930,0.3482 -0.5138,0.5306 -0.5138 0.5306c -0.3209,0.1825 -0.7404,0.1825 -0.7404 0.1825c -0.8515,-0.0000 -1.3402,-0.6607 -1.3402 -0.6607c -0.4887,-0.6607 -0.4887,-1.8226 -0.4887 -1.8226c 0.0000,-1.1451 0.4908,-1.7974 0.4908 -1.7974c 0.4908,-0.6523 1.3381,-0.6523 1.3381 -0.6523c 0.4237,-0.0000 0.7466,0.1825 0.7466 0.1825c 0.3230,0.1825 0.5076,0.5306 0.5076 0.5306ZM 236.1125,62.5629 ZM 233.8432,64.3163 c 0.0000,0.8977 0.2852,1.3549 0.2852 1.3549c 0.2852,0.4572 0.8431,0.4572 0.8431 0.4572c 0.5579,-0.0000 0.8494,-0.4614 0.8494 -0.4614c 0.2915,-0.4614 0.2915,-1.3507 0.2915 -1.3507c 0.0000,-0.8935 -0.2915,-1.3528 -0.2915 -1.3528c -0.2915,-0.4593 -0.8494,-0.4593 -0.8494 -0.4593c -0.5579,-0.0000 -0.8431,0.4572 -0.8431 0.4572c -0.2852,0.4572 -0.2852,1.3549 -0.2852 1.3549ZM 237.6855,66.6611 ZM 241.3978,60.1426 c -0.5579,0.9564 -0.8326,1.9065 -0.8326 1.9065c -0.2747,0.9501 -0.2747,1.9148 -0.2747 1.9148c 0.0000,0.9606 0.2747,1.9128 0.2747 1.9128c 0.2747,0.9522 0.8326,1.9169 0.8326 1.9169h -0.6711 c -0.6334,-0.9983 -0.9438,-1.9442 -0.9438 -1.9442c -0.3104,-0.9459 -0.3104,-1.8855 -0.3104 -1.8855c 0.0000,-0.9354 0.3104,-1.8834 0.3104 -1.8834c 0.3104,-0.9480 0.9438,-1.9379 0.9438 -1.9379h 0.6711 ZM 242.8575,66.6611 ZM 243.0546,60.3985 h 4.7777 v 0.7131 h -1.9589 v 5.5495 h -0.8515 v -5.5495 h -1.9673 v -0.7131 ZM 248.0295,66.6611 ZM 250.0555,63.5151 c 0.0000,-0.2307 0.1615,-0.3985 0.1615 -0.3985c 0.1615,-0.1678 0.3880,-0.1678 0.3880 -0.1678c 0.2349,-0.0000 0.4027,0.1678 0.4027 0.1678c 0.1678,0.1678 0.1678,0.3985 0.1678 0.3985c 0.0000,0.2349 -0.1657,0.3985 -0.1657 0.3985c -0.1657,0.1636 -0.4048,0.1636 -0.4048 0.1636c -0.2349,-0.0000 -0.3922,-0.1594 -0.3922 -0.1594c -0.1573,-0.1594 -0.1573,-0.4027 -0.1573 -0.4027ZM 250.0555,63.5151 ZM 250.6134,60.9564 c -0.5914,-0.0000 -0.8830,0.6376 -0.8830 0.6376c -0.2915,0.6376 -0.2915,1.9421 -0.2915 1.9421c 0.0000,1.3003 0.2915,1.9379 0.2915 1.9379c 0.2915,0.6376 0.8830,0.6376 0.8830 0.6376c 0.5956,-0.0000 0.8872,-0.6376 0.8872 -0.6376c 0.2915,-0.6376 0.2915,-1.9379 0.2915 -1.9379c 0.0000,-1.3045 -0.2915,-1.9421 -0.2915 -1.9421c -0.2915,-0.6376 -0.8872,-0.6376 -0.8872 -0.6376ZM 250.6134,60.9564 ZM 250.6134,60.2852 c 1.0025,-0.0000 1.5164,0.8221 1.5164 0.8221c 0.5138,0.8221 0.5138,2.4287 0.5138 2.4287c 0.0000,1.6023 -0.5138,2.4245 -0.5138 2.4245c -0.5138,0.8221 -1.5164,0.8221 -1.5164 0.8221c -1.0025,-0.0000 -1.5143,-0.8221 -1.5143 -0.8221c -0.5117,-0.8221 -0.5117,-2.4245 -0.5117 -2.4245c 0.0000,-1.6065 0.5117,-2.4287 0.5117 -2.4287c 0.5117,-0.8221 1.5143,-0.8221 1.5143 -0.8221ZM 253.2015,66.6611 ZM 255.3072,65.3901 h 1.0570 v 0.8683 l -0.8263,1.6065 h -0.6460 l 0.4153,-1.6065 v -0.8683 ZM 258.3734,66.6611 ZM 258.5706,60.3985 h 4.7777 v 0.7131 h -1.9589 v 5.5495 h -0.8515 v -5.5495 h -1.9673 v -0.7131 ZM 263.5454,66.6611 ZM 264.6780,65.9480 h 1.3171 v -4.7861 l -1.4178,0.3188 v -0.7718 l 1.4094,-0.3104 h 0.8473 v 5.5495 h 1.3003 v 0.7131 h -3.4564 v -0.7131 ZM 268.7174,66.6611 ZM 270.1771,60.1426 h 0.6711 c 0.6334,0.9899 0.9438,1.9379 0.9438 1.9379c 0.3104,0.9480 0.3104,1.8834 0.3104 1.8834c 0.0000,0.9438 -0.3104,1.8918 -0.3104 1.8918c -0.3104,0.9480 -0.9438,1.9379 -0.9438 1.9379h -0.6711 c 0.5579,-0.9732 0.8326,-1.9253 0.8326 -1.9253c 0.2747,-0.9522 0.2747,-1.9044 0.2747 -1.9044c 0.0000,-0.9564 -0.2747,-1.9086 -0.2747 -1.9086c -0.2747,-0.9522 -0.8326,-1.9128 -0.8326 -1.9128Z"/></g></svg>